/* XPM */
static char * parquet_made_xpm[] = {
"64 64 508 2",
"  	c #CCC6BF",
". 	c #D0CBC3",
"+ 	c #C9C5BC",
"@ 	c #CAC6BD",
"# 	c #C7C2B9",
"$ 	c #CCC7BD",
"% 	c #C8C4BB",
"& 	c #CBC7BE",
"* 	c #CDC9C0",
"= 	c #C9C5BB",
"- 	c #C9C4BB",
"; 	c #C6C1B8",
"> 	c #C8C3B9",
", 	c #CBC5BC",
"' 	c #CCC7BE",
") 	c #D0CCC3",
"! 	c #CDC8BF",
"~ 	c #D4D0C7",
"{ 	c #D1CCC6",
"] 	c #D6D1C9",
"^ 	c #D5D0C9",
"/ 	c #D0CCC4",
"( 	c #D2CEC5",
"_ 	c #CECAC1",
": 	c #CCC8BF",
"< 	c #C4C0B7",
"[ 	c #BBB7AD",
"} 	c #D1CDC4",
"| 	c #D3CFC6",
"1 	c #C5C1B8",
"2 	c #C8C4BA",
"3 	c #C7C3B9",
"4 	c #C2BEB4",
"5 	c #BEB8AD",
"6 	c #C3BFB6",
"7 	c #C7C3BA",
"8 	c #CAC6C0",
"9 	c #C8C5BE",
"0 	c #CAC7BF",
"a 	c #CBC6BE",
"b 	c #CDC9C1",
"c 	c #CECBC4",
"d 	c #C5C0B7",
"e 	c #BAB2A9",
"f 	c #BAB3A9",
"g 	c #C9C4BA",
"h 	c #CEC9C0",
"i 	c #CECAC0",
"j 	c #CDC9BF",
"k 	c #CBC7BD",
"l 	c #C2BCB2",
"m 	c #C0BAAF",
"n 	c #BEB6AD",
"o 	c #C3BCB2",
"p 	c #CCC6BD",
"q 	c #CFCBC2",
"r 	c #D5D1C8",
"s 	c #D2CEC6",
"t 	c #D2CDC5",
"u 	c #C6C2B9",
"v 	c #C4C0B6",
"w 	c #C6C2B8",
"x 	c #BEB9AE",
"y 	c #C0BCB3",
"z 	c #C1BDB2",
"A 	c #C1BDB3",
"B 	c #C5C1B7",
"C 	c #C5C2B9",
"D 	c #C2BEB5",
"E 	c #C8C4BC",
"F 	c #CBC7BF",
"G 	c #BDB5AB",
"H 	c #ABA297",
"I 	c #BCB5AB",
"J 	c #C6C0B6",
"K 	c #D6D2C9",
"L 	c #CDC8BE",
"M 	c #CEC8BF",
"N 	c #C6BFB5",
"O 	c #C1BBB1",
"P 	c #CAC5BC",
"Q 	c #D0CCC2",
"R 	c #C5C1B9",
"S 	c #C3BFB5",
"T 	c #BDB7AD",
"U 	c #C0BBB2",
"V 	c #C3BFB4",
"W 	c #BFBBB1",
"X 	c #BDB9AF",
"Y 	c #C0BAB1",
"Z 	c #C2BCB3",
"` 	c #C3BEB6",
" .	c #C9C3BA",
"..	c #D4D0C8",
"+.	c #C6C1B7",
"@.	c #C7C2B8",
"#.	c #CAC6BC",
"$.	c #D2CEC4",
"%.	c #C4BFB6",
"&.	c #C1BCB2",
"*.	c #C5C1B6",
"=.	c #C2BDB3",
"-.	c #C0BBB1",
";.	c #C8C3BB",
">.	c #C7C4BC",
",.	c #C7C3BC",
"'.	c #C8C4BD",
").	c #CBC8C0",
"!.	c #C9C5BD",
"~.	c #CAC6BE",
"{.	c #CFCBC3",
"].	c #CCC9C0",
"^.	c #D9D4CC",
"/.	c #D3D0C7",
"(.	c #D7D3CA",
"_.	c #C6C3BA",
":.	c #CCC8C1",
"<.	c #CAC6BF",
"[.	c #C9C6BE",
"}.	c #C8C5BD",
"|.	c #C9C4BD",
"1.	c #C1BCB3",
"2.	c #CBC8BF",
"3.	c #D2CFC8",
"4.	c #D6D3CC",
"5.	c #CECBC3",
"6.	c #BEB9AF",
"7.	c #C4C0B5",
"8.	c #CBC6BC",
"9.	c #CCC8BE",
"0.	c #D1CDC5",
"a.	c #D3CFC7",
"b.	c #CECAC2",
"c.	c #D2CFC6",
"d.	c #CDCAC2",
"e.	c #D3D0C9",
"f.	c #CFCCC3",
"g.	c #D1CEC6",
"h.	c #C6C3B9",
"i.	c #CCC9C2",
"j.	c #CDCAC3",
"k.	c #C9C6BF",
"l.	c #CAC7BE",
"m.	c #CFCCC4",
"n.	c #CECBC2",
"o.	c #D3CFC8",
"p.	c #CCC7BF",
"q.	c #C8C3BA",
"r.	c #D1CCC4",
"s.	c #D3CEC6",
"t.	c #CEC9C1",
"u.	c #C5BFB6",
"v.	c #D1CDC3",
"w.	c #C2BDB4",
"x.	c #D0CDC6",
"y.	c #CDCAC1",
"z.	c #D5D2CB",
"A.	c #D1CEC7",
"B.	c #CCC8C0",
"C.	c #D3D0C8",
"D.	c #C7C3BB",
"E.	c #C9C5BE",
"F.	c #BFBBB2",
"G.	c #C9C6BD",
"H.	c #C4C0B8",
"I.	c #CDC9C3",
"J.	c #D5D1C9",
"K.	c #D3CEC7",
"L.	c #CFCBC1",
"M.	c #D4D0C9",
"N.	c #D1CCC3",
"O.	c #CFCBC4",
"P.	c #CFCCC5",
"Q.	c #CBC8C1",
"R.	c #CCC9C1",
"S.	c #D9D6CF",
"T.	c #D1CDC6",
"U.	c #CBC7C0",
"V.	c #CAC7C0",
"W.	c #C8C5BC",
"X.	c #C6C3BB",
"Y.	c #D2CDC7",
"Z.	c #D0CCC5",
"`.	c #D4D1C9",
" +	c #D6D2CC",
".+	c #DAD6CF",
"++	c #D4CFC8",
"@+	c #CDC8C2",
"#+	c #D4D1CA",
"$+	c #D0CDC5",
"%+	c #D2CFC7",
"&+	c #D3CFC9",
"*+	c #D0CCC6",
"=+	c #D2CEC7",
"-+	c #CECBC5",
";+	c #D7D4CD",
">+	c #DAD7D0",
",+	c #D5D1CB",
"'+	c #D8D5CE",
")+	c #D6D3CB",
"!+	c #D2CFC9",
"~+	c #DBD8D1",
"{+	c #DFDCD5",
"]+	c #DCD9D2",
"^+	c #D9D5CE",
"/+	c #CDC9C2",
"(+	c #CECAC3",
"_+	c #D9D6CE",
":+	c #D8D5CF",
"<+	c #C1BDB4",
"[+	c #D7D3CC",
"}+	c #D8D5CD",
"|+	c #D5D2CA",
"1+	c #D1CDC7",
"2+	c #D7D3CD",
"3+	c #B2AAA0",
"4+	c #B8B1A7",
"5+	c #C3BFB7",
"6+	c #C8C4BE",
"7+	c #CBC7C1",
"8+	c #D9D6CD",
"9+	c #CDC8C0",
"0+	c #D6D2CA",
"a+	c #D5D1CA",
"b+	c #C6C2BA",
"c+	c #CECAC4",
"d+	c #C7C4BD",
"e+	c #BFBAB1",
"f+	c #BBB5AB",
"g+	c #C6C0B7",
"h+	c #BFB8AE",
"i+	c #C5C0B6",
"j+	c #C8C1B7",
"k+	c #C8C2B9",
"l+	c #C4BEB5",
"m+	c #CBC5BB",
"n+	c #C5BEB4",
"o+	c #C5BEB6",
"p+	c #C3BEB4",
"q+	c #BFB9AF",
"r+	c #C6C1B9",
"s+	c #CAC4BB",
"t+	c #C7C1B8",
"u+	c #C7C0B7",
"v+	c #C8C1B8",
"w+	c #C0BAB0",
"x+	c #C5BFB5",
"y+	c #C5C0B5",
"z+	c #BEB7AD",
"A+	c #CAC5BB",
"B+	c #C3BDB4",
"C+	c #B6AFA5",
"D+	c #BEB8AE",
"E+	c #CFCAC1",
"F+	c #D6D1C8",
"G+	c #DBD7CF",
"H+	c #D9D5CD",
"I+	c #C0B9B0",
"J+	c #CAC4BA",
"K+	c #D3CFC5",
"L+	c #C4BEB4",
"M+	c #BFBAB0",
"N+	c #BCB6AB",
"O+	c #C0BCB2",
"P+	c #C2BEB3",
"Q+	c #D7D4CC",
"R+	c #D7D3CB",
"S+	c #DBD7CE",
"T+	c #D7D4CB",
"U+	c #D8D4CB",
"V+	c #D2CDC4",
"W+	c #C4BFB5",
"X+	c #BBB4AA",
"Y+	c #BFB9AE",
"Z+	c #BFB9B0",
"`+	c #DEDBD3",
" @	c #DAD7CF",
".@	c #DDDAD2",
"+@	c #C2BEB6",
"@@	c #D0CBC4",
"#@	c #CAC5BD",
"$@	c #D6D3CA",
"%@	c #D4D1C8",
"&@	c #D0CDC4",
"*@	c #CBC6BD",
"=@	c #BEBAAF",
"-@	c #BEBAB0",
";@	c #BEB9B0",
">@	c #C7C2BA",
",@	c #C3BEB7",
"'@	c #C9C4BC",
")@	c #C7C4BB",
"!@	c #DDDAD3",
"~@	c #C4C0B9",
"{@	c #C5C1BA",
"]@	c #DEDBD4",
"^@	c #CEC9C3",
"/@	c #D8D4CD",
"(@	c #E2DFD8",
"_@	c #C8C2BA",
":@	c #DDDAD4",
"<@	c #CFCCC6",
"[@	c #D1CEC8",
"}@	c #C4C1BA",
"|@	c #E4E1DA",
"1@	c #E0DDD6",
"2@	c #CDCAC4",
"3@	c #C5C2BB",
"4@	c #DDD9D3",
"5@	c #D8D4CE",
"6@	c #C5C2BA",
"7@	c #BEBBB2",
"8@	c #D7D5CE",
"9@	c #D6D4CD",
"0@	c #CCC9C3",
"a@	c #CEC9C2",
"b@	c #DAD6CE",
"c@	c #CBC9C2",
"d@	c #CBC8C2",
"e@	c #C4C1B8",
"f@	c #BCB7AF",
"g@	c #CFCAC2",
"h@	c #C6C3BC",
"i@	c #BAB5AD",
"j@	c #C0BBB3",
"k@	c #DCD9D1",
"l@	c #DDD9D2",
"m@	c #D0CBC5",
"n@	c #D2CDC6",
"o@	c #D1CCC5",
"p@	c #C3C0B8",
"q@	c #BEBAB1",
"r@	c #D4D0CA",
"s@	c #CBC6BF",
"t@	c #C0BCB5",
"u@	c #BBB6AD",
"v@	c #C1BEB4",
"w@	c #C3BDB6",
"x@	c #C1BEB5",
"y@	c #D9D5CF",
"z@	c #D6D2CB",
"A@	c #C0BDB6",
"B@	c #C0BDB4",
"C@	c #BFBBB0",
"D@	c #BDB9AE",
"E@	c #BDB8AD",
"F@	c #BCB7AD",
"G@	c #BCB8AE",
"H@	c #C3BEB5",
"I@	c #BDB9B0",
"J@	c #C9C4BE",
"K@	c #C7C3BD",
"L@	c #C5C0BA",
"M@	c #C0BDB5",
"N@	c #C1BDB5",
"O@	c #C3C0B7",
"P@	c #C4C1B9",
"Q@	c #C2BFB7",
"R@	c #DCD9D3",
"S@	c #BEBAB2",
"T@	c #C2BFB8",
"U@	c #BFBCB5",
"V@	c #D0CDC7",
"W@	c #C6C2BB",
"X@	c #BFBCB6",
"Y@	c #C1BEB7",
"Z@	c #C7C4BE",
"`@	c #C3C0B9",
" #	c #C9C6C0",
".#	c #C7C5BE",
"+#	c #C9C7C0",
"@#	c #BEBBB4",
"##	c #BEB9B1",
"$#	c #BFBBB3",
"%#	c #BCB8AF",
"&#	c #AAA49A",
"*#	c #B8B4AB",
"=#	c #D5D2CC",
"-#	c #BAB7AF",
";#	c #BBB7AF",
">#	c #BDBAB2",
",#	c #CAC7C1",
"'#	c #CFCCC7",
")#	c #BDB9B1",
"!#	c #BCB8B0",
"~#	c #C8C5BF",
"{#	c #C4C1B7",
"]#	c #C2BFB6",
"^#	c #C3BFB8",
"/#	c #BEBBB3",
"(#	c #C0BCB4",
"_#	c #B9B5AE",
":#	c #BCB9B1",
"<#	c #C2BFB9",
"[#	c #B8B5AE",
"}#	c #BBB8B1",
"|#	c #B8B5AD",
"1#	c #BCB8B2",
"2#	c #C0BDB7",
"3#	c #C1BEB6",
"4#	c #BDBAB3",
"5#	c #BCB9B2",
"6#	c #C4C1BB",
"7#	c #BBB8B2",
"8#	c #C3C0BA",
"9#	c #B9B6AF",
"0#	c #C1BFB8",
"a#	c #BAB7B0",
"b#	c #B6B3AC",
"c#	c #C4C2BB",
"d#	c #B7B4AD",
"e#	c #B5B2AA",
"f#	c #C5C2BC",
"g#	c #C7C4BF",
"h#	c #BCBAB3",
"i#	c #BEBCB5",
"j#	c #B5B2AB",
"k#	c #C6C3BD",
"l#	c #C4C1BC",
"m#	c #C9C6C1",
"n#	c #CCC9C4",
"o#	c #C1BEB8",
"p#	c #C6C3BE",
"q#	c #C2BFBA",
"r#	c #BCB9B3",
"s#	c #CAC7C2",
"t#	c #C1BFB9",
"u#	c #C1BEB9",
"v#	c #BDBAB4",
"w#	c #C3C0BB",
"x#	c #C8C5C0",
"y#	c #CDCAC5",
"z#	c #BFBCB4",
"A#	c #BBB7B1",
"B#	c #B6B2AC",
"C#	c #B2AFA8",
"D#	c #C0BDB8",
"E#	c #B5B2AC",
"F#	c #BFBCB7",
"G#	c #B3B0A9",
"H#	c #BDB9B2",
"I#	c #B6B2AB",
"J#	c #B7B3AC",
"K#	c #B3B0A8",
"L#	c #B3AFA9",
"M#	c #B0ADA6",
"N#	c #B4B0A9",
"O#	c #AFACA5",
"P#	c #B4B1AA",
"Q#	c #BEBBB5",
"R#	c #B2AFA9",
"S#	c #BAB7B1",
"T#	c #B1AEA7",
"U#	c #AAA7A0",
"V#	c #AEABA4",
"W#	c #ACA8A1",
"X#	c #B3AFA8",
"Y#	c #B1ADA7",
"Z#	c #AEA9A3",
"`#	c #ADA9A2",
" $	c #B2ADA7",
".$	c #B5B1AA",
"+$	c #BEBAB3",
"@$	c #B5B1AB",
"#$	c #B6B2AA",
"$$	c #B1ADA6",
"%$	c #BBB9B2",
"&$	c #B0ADA5",
"*$	c #B1AEA6",
"=$	c #B5B0AA",
"-$	c #BAB6AF",
";$	c #AEA9A2",
">$	c #B0ACA5",
",$	c #B8B4AE",
"'$	c #B0ACA4",
")$	c #B7B2AC",
"!$	c #B9B4AE",
"~$	c #B1AEA5",
"{$	c #B6B3AB",
"]$	c #AFACA4",
"^$	c #AEAAA2",
"/$	c #A6A298",
"($	c #ACA89F",
"_$	c #B9B6B0",
":$	c #B1ADA5",
"<$	c #B2AEA8",
"[$	c #B6B1AB",
"}$	c #B2AFA7",
"|$	c #B2ADA5",
"1$	c #ADA9A1",
"2$	c #B0ABA4",
"3$	c #B4B0AA",
"4$	c #B6B3AD",
"5$	c #B4AFA9",
"6$	c #B1ACA6",
"7$	c #AEAAA4",
"8$	c #ABA7A1",
"9$	c #ADA9A3",
"0$	c #B0ACA6",
"a$	c #A9A49C",
"b$	c #AEABA3",
"c$	c #B1ACA5",
"d$	c #BDBAB5",
"e$	c #BAB8B1",
"f$	c #AEAAA3",
"g$	c #ACA9A1",
"h$	c #B2AEA7",
"i$	c #AFABA5",
"  . + @ # $ % & * + @ = - ; > , ' ) ) ! - ~ { ] ^ / ( * _ : < [ + } | * : & * @ : % 1 < 2 3 % % 4 5 6 7 1 + @ % 1 1 8 9 0 a b c ",
"d e f g h _ & } } i j k g l m n o p & q - r / ( s t _ } ) q * q : @ % % u + 7 < 1 u 1 u 6 6 6 v w x 4 3 u 6 y z A B C D E 1 7 F ",
"@ G H I J : } } K ~ K ( ) q L M , N O : : _ q ) ) q ( _ P 1 Q _ : * & : % @ u R % + B S 1 & @ % 7 T U A % 3 w V A W X y Y Z ` 7 ",
"&  .s ..} _ _ ' & +.# @.3 % #.$  .# , 2 2 + * $.j Q * h %.&.*.& =.-.B + + u 1 k : : 7 w + & 7 1 + 7 7 ;.% 6 + % % >.,.'.& ).!.~.",
"} {.{.].q : @ & @ * q ) _ ) } _ * #.* * q ^./.(.Q % @ & - @ : * : : * + * ~.) @ & + & : b % + + < _.:.<.[.}.1 1 % 0 |.6 1.E ).b ",
"2.3.4.5.: # 6.7.#.k 8.9.: & @ + @ & * * 7 0.a.b.~ } q k P : : % : c.b.d.e.: =.* f.7 1 !.].g.b h.S A < 1 !.i.3.j.[.u k.).0 F F l.",
"m.n.o.{.p.q.+ @ u = @ @ 2 : } ( ( | } q @ | r.s.* t.* ( } u.v.( w.x.y.+ z.0.+ 5.A.x.@ 7 B.5.C.5.F 2.D.!.F j.i.j.j.E.F.G.}.W H.I.",
"q ) J.K.} B.: L.& @ ~.@ @ * } _ ( | q ) @ M.0...u h & N.> i } B.O.2.l.B.l.B.5.5.}.+ u S 7 ]._.@ y.c P.Q.R.Q.c R.i.<.k.k.R._.C u ",
"& . s.0.~ ] ) * : b.+ q ) } t.| r 0.( | b.S.M.s q : / q./ T.g.m.l.A.d.O.e.e.d.U.B.Q.R.V.R.W._.X.}.Q.c Q.c j.c R.i.5.x.5.d.d.j.l.",
"B & & : } o.Y.Z.Z.{ 5.`.o.4. +.+r ..++Z.@+0.e.T.T.#+[.$+4.%+m.x.`.3.j.3.P.5.5.j.x.3.5.Q.).P.x.c Q.A.3.A.3.A.3.x.3.3.x.c m.3.x.%+",
"_ q / o.&+*+=+T.e.A.4.z.4.-+;+e.z.%+>+S.,+#+'+#+'+)+3.e.3.#+%+%+#+5.5.3.e.e.3.A.P.3.P.P.c P.Q.j.A.x.#+C.#+3.!+#+4.4.e.A.x.x.#+4.",
"9 0 O.C.g.3.A.x.3.x.3.A.4.z.4.~+{+>+'+]+z.4.S.4.^+#+3./+z.A.d.[.x.z.e.A.A.c d.i.V.c c P.P.j.P.e.e.#+4.#+z.;+4.4.z.z.A.A.x.x.c k.",
"x.& B./+(+x.A.e.4.>+_+S.'+>+>+.+S.'+'+;+;+;+S.S.>+]+>+S.z.g.#+:+#+e.g.A.0 l.!.E b.D.<+:.c x.A.e.#+e.3.#+A.j.x.e.#+;+#+3.A.A.P.3.",
") ~ s d.T.C.[+4.}+S.4.T.#+Z.T.{.Z.3.c |+C.1+A.#+2+[+)+s ..R.A.P.A.c )+x.f.1 3+4+6 G.D.7 5+).X.8 i.i./+6+i.Q.7+<.i.5.P.z.3.e.4.3.",
"Z &.7 % : & #.P : _ } | ..K 8+)+r r r K ( 9+C.=+0+o.[+[+0+`.g.a+3.A.A.n.: +.; * b.: + : !.b+[.c+Q.V.d+D.8 8 9 0 A.#+4.;+P.;+A.j.",
"e+f+g+J h+' + g+# i+=.j+k+l+k+P m+n+o+%.u.Z +.& : * p.* & & : Q b.& R.- 2 2 +.p+3 i+q+q.E * i.Q.j.P.3.m.<.X.` 5+r+w.x.A.z.Q.A.c ",
"_ ; p.s+- - l+t+k+J u+v+M : } } } % @ ) } ) w+I l x+d B x+= y+J z+v 2 A+-.q.w B+1 f+C+D+3 b+).U.i.O.m.d.g.m.%+0.P.d.'+-+A.z.0 x.",
"@ 1 : b.C._ ( | E+% N.F+t b.( ~ K G+H+r /.: I+t+q.: 9.= J+g  .#.w+v K+} + L+p+M+S w+N+x w.O+P+< X.E.}.d.i./+0 P.b.n.,+e.4.S.j.P.",
"=+m.% u (+|+n.V.P.C.Q+`.0+R+S+T+K (.T+K U+' L.V+N.} _ ) & q u = u B &.Z * W+X+Y+V M+p+Z+B ).5.).x.#+A.x.z.z.|+z.e.;+i.A.P.3.e.x.",
"b o.b.:.(+x.m.z.;+S.S.'+_+G+`+_+`+ @}+.@8+c.~ r q } U+} ~ ( ~ } | : w i+_ : u & : u 2.y.y.).5.j.0 >.B.+@9 O...3.x.x.A.e.[.!.(+9 ",
"4 B @ + g.d.5.3.%+Q+#+@@s+#@Q+>+~+$@r 0+M.>+S./ r ~ %@`.&@} ) _ k *@# 2 k B W =@-@;@B 7 [.V.).P.j.5.F >@u E !.~.,@'@U.x.z.4.A.P.",
"* 1 )@].].!.!.f.*+$+#+#+=+b %+ @!@!@0+{.h !@!@~+>+S.S.S.S.S.z.#+c '.b F B.R.d.R.0 ).).c b+[.0 )._.).j./+R.~@{@R >.9 Q.Q.3.e.#+3.",
"q @ l.A.A.P.^+`.4.o.5.a+E E o.[+>+{+Q+( d.~+]@!@S.;+4.;+S.>+S.'+'+4.e.A.A.P.P.c x.e.e.A.x.x.3.z.#+x.x.;+#+4.;+#+3.T.A.A.A.-+P.V.",
").E G.d.P.$+0 (+^@T.#+'+!@/@!@]@]@(@]@0+_@]+]@!@:@]+>+>+>+S.>+>+'+;+4.;+4.c <@c P.P.j.A.x.3.3.e.P.e.[@P.4.#+3.x.i.3.z.;+z.;+x.Q.",
"c P.V.c P.j.e.3.z.z.;+>+~+'+]+]+!@]@(@~+Z.(@]+]@]+S.'+;+'+'+'+S.#+;+z.4.e.j.e.4.e.3.x.P.c i.T.3.e.e.A.P.e.;+;+4.4.#+3.#+4.#+;+x.",
"i.k.}@j.i.c x.z.;+;+;+S.;+4.S.>+!@(@|@1@{+!@i.A.S.;+P.#+#+;+;+4.e.x.m.#+A.k.j.i.x.P.i.A.c x.j.c j.#+x.e.z.4.A.e.'+4.3.~+'+4.#+4.",
"k.Q.P.c 2@P.x.A.5.x.x.`.b s [+%+b.M.a+ +4.#+;+'+S.~+>+'+'+S.>+S.z.;+4.e.4.#+P.e.z.4.;+4.'+#+4.;+e.e.#+x.A.3.#+e.j.j.Q.Q.i.i.Q.d+",
"j.d+3@V.c x.P.M.#+3.4.z.>+!@4.~+]+4@!@S.;+5@4.#+Z.Z.A.A.;+4.#+#+e.3.x.x.#+#+x.A.3.3.3.#+;+3.3.3.z.S.'+z.;+z.z.z.z.#+4.e.#+#+z.e.",
"6@7@D.u C b+G.b.m.x.z.j.x.e.~+>+;+~+'+!@~+~+]+!@]@]+~+;+'+8@P.j.j.A.e.#+3.3.#+3.i.}@j.i.c 3.3.3.P.A.;+#+3.#+9@4.z.#+3.3.V.0@j.P.",
"X B u R.U.m.j.i.5.c c Q.x.P.3.]+{+!@S.~+>+!@;+'+;+z.4.'+;+#+#+4.4.3.#+x.A.3.c e.3.A.A.x.x.A.A.c P.P.).j.P.c 3.z.e.e.x.c i.V.j.Q.",
"H.X.~.D.C 0 /+B.u < D r+a@} / .+b@/@>+;+'+;+4.,+o.e.,+4.;+z.e.%+e.i.Q.j.).d+V.i.V.c@d@j.i.P.A.x.x.A.P.P.i.3.x.#+;+z.e.A.P.j.j.x.",
"e@5+!.f@,@>.>.j.#+S.A.#+~+]+S.4.'+ +'+;+S.z.'+a+a+++g@b.) ) F / o.`.x.l.C /+c x.x.j.i.Q.k.h@V.P.j.A.x.A.3.x.A.j.j.3.A.e.A.c P.Q.",
"i@j@D < 6 6 7 E E r+!.$+g..+/@k@l@!@'+~+z.4.;+M.=+m@n@T.o@( : 7 & ].y.0.G.B.R R V.P.d+3@d+p@3@i.i.P.c d.e.x.3.P.P.x.x.j.c j.P.V.",
"-@U q@R >.R.b.Q.;+e.4.;+z.A.0+b s &+,+:. +r@s@/ a+,+r@@@a+@ q.L.& # R.: _.t@u@t@}@j.i.j.i.Q.9 c j.P.c /+O.d.x.c P.A.j.c j.V.Q.k.",
"v@>.P.c X.1 }.P.z.z.;+>+>+]@{+!@{+]+!@^+[+T.F B.B.s b 9+a - @ 5.7 w.% O.+@R w@x@9 p@k.5+e@>.X.7 R.d.i.c d.).V.j.T.P.x.j.Q.Q.V.3@",
"b+G.).[.).j.P.i.m.m.e.4.z.,+ +>+]+S.`.~+]+M.y@4.z@o.'+^+'+z.z.#+e.x.i.i.P.>.c i.A@B@-@C@D@X E@F@G@v H@6 1.I@D D R J@}.4 <+u _.5+",
"<+u 1 C ,.K@L@3@c z.e.g.!.T.b 9+,+5@4.'+z.>+'+'+;+#+'+e.e.e.x.0 O.j./+).V.0 1 B@M@B@D 6 '@D.N@>.E.E.P.c j.j.j.j.3.Q.l.B.U.W.6 D ",
"O@H.P@Q@p@K@V.6@V.i.c e.z.]@!@(@1@{+R@>+4.5@Z./+R.:.W.G.r+H@; D 1 S@b+6@6@3@p@6@Q.P.2@P.d+T@}@3@T@d+K@[.D.b+H.!.<.[.B.X.~.X.t@U@",
"9 9 9 V.k.9 9 k.j.c e.S.S.'+~+S.>+~+]+>+'+}+;+4.3.m.P.e.A.V@c x.x.i.k.V.3@6@Q@p@[.h@W@c P.P.Q.j.P.x.c A.3.e.3.e.3.A.j.3.P.V.j.j.",
"}@V.i.j.j.Q.V.P.3.#+z.'+]+>+>+!@!@!@]@]+~+S.;+;+'+;+3.A.P.A.e.A.x.x.A.V.j.P.x.Q.i.j.j.Q.V.<@P.P.j.j.x.i.c x.i.c #+2@P.c j.Q.9 h@",
"V.9 j.k.9 3@d+X@U@U@d+h@9 3@Y@h@Z@3@V.d@V.9 d+d+3@Q@}@Y@d+`@9 V.k.d+}@h@Q.i.c c c Q.9 x.e.e.x.j.i.j.c Q. #Q.d+3@3@}@.#+#k.9 V.V.",
"V.`@3@Q.Q.k.Q.3@V.Q.V.Q.h@h@Q.j.}@d+c c 3.k.c j.i.h@d+3@`@k.k.0 h@A@A@3@9 d+}@P@6@k.Q.Q.2@2@j.k.h@9 j.9 }@j.P.P.i.j.V.`@T@U@@#T@",
"`@T@U@h@h@V.i.c i.P.Y@j.j.3.P.i.V.d@i.i.c o.x.Q.6+3@d+i.>.}@d+d+T@Y@h@Q.V.k.0 h@d+V.k.}.Q.d+d+k. #Z@##$#3@9 j.P.-+i.P.9 9 `@3@3@",
"}@V.k.c 9 P.k.j.j.P.e.i.P.P.x.j.V.e.P.A.o.!.'.V.@+Q.d+3@h@h@9 V.V.k.3@V.9 d+9 3@Q.d+h@9 V.P.x.3.j.%#&#*#Y@9 c P.c c c  # #9 d+}@",
"}@3@j.}@9 d+j.j.P.c V.j.Q.#+=#z.i.x.e.-+V.i.3@:.<.Q.T@Q.i.c j.k.h@d+j.3@j.Q.h@V.Q.h@9 k.j.i.9 h@Y@-#;#h@k.i.i.V.k.d+h@ #9 k.3@h@",
"`@Q.V.Q.V.h@V.V.9 9 i.i.k.R.!.~@~.Z.c 3@9 9 V.V.V.d+T@T@3@3@}.k.k.Q.`@U@>#P@9 i.h@Q.c V.c P.k.h@V.Q.V.k.,#h@i.9 9 3@h@T@V.'#Z@2@",
"M@)#!#d+i.i.d+k.9 Q@Q.~#<.F R r+{#!.P.x.Q.i.j.k.h@}@h@9 d+V.d+T@3@A@A@Q@6@d+d+i.9 9 k.Q.V.k.3@Q@+@]#^#d+T@x@/#(#T@_#:#>#Y@`@<#Q.",
"[#U@d+d+d+@#U@3@P.i.i.c Q.A.x.#+A.c j.A.<@j.i.j.d+d+9 }@9 i.Q.3@}@h@X.h@d+d+d+h@T@}@3@h@h@3@T@T@h@k.k.3@k.d+}.k.T@}#;#%#!#|#p@1#",
"h@9 k.k.9 9 h@@#U@3@Q.c c j.j.[.-+x.x.-+<@x.V.V.d+d+d+9 T@T@T@d+}@}@3@A@}@h@`@2#Y@Y@}@3@V.k.h@d+3@h@9 p@Y@k.}@9 T@3@9 T@h@Y@`@}@",
"9 h@3@T@h@`@3@9 h@h@c Q.Q.V.6@Q@3#4#T@d+Q.9 h@`@@#/#|#/#A@A@A@Y@}#4#5#T@}@Y@T@3@}@`@}@h@3@}@h@9 h@d+9 9 V.Q.3@h@h@}@Y@4#5#4#U@5#",
"3@}@}@Y@3@}@9 d+k.h@Q.,#k.T@V.d+c i.T@6#[#A@Y@7#A@5#`@T@`@Y@T@`@}@3@`@A@8#}@`@Y@Y@U@T@}@}@3@T@`@`@3@d+h@h@h@}@`@T@@#3@3@3@@#4#9#",
"Y@A@5#}@T@d+V.Q.d+h@}@T@d+3@k.k.`@0#k.9 4#a#`@[#9#4#a#9#:#4#@#U@5#4#U@Y@h@@#U@@#}#U@}@d+V.V.Q.9 h@d+`@}@d+k.k.9 k.V.d+3@d+`@<#A@",
"}@A@T@5#U@Y@a#4#3@5#@#U@T@i. #A@3@8#9 k.[#Y@}#[#[#b#@#Y@U@`@c#d+A@A@`@}@`@T@Y@U@`@A@T@h@3@d+h@}@h@d+3@3@3@}@3@`@3@h@3@`@}@@#T@T@",
"@#d#d#e#a#5#@#Y@}@@#}@ #}@6#~#d+3@3@}@U@/#5#a#a#5#A@@#4#5#a#>#T@}#U@4#@#}#|#}#5#}#U@Y@}@}@3@A@U@}@}@`@T@`@A@A@U@}#4#U@a#5#}#@#@#",
"T@2#6#T@U@Y@U@0#2#f#<#6#d@A@g# #}@4#A@Y@T@h@T@5#b#}#}@A@Y@A@Y@}@h@`@A@5#U@h#4#@#U@@#@#T@6#T@2#`@@#i#5#5#d#9#5#@#9#9#4#5#5#a#[#j#",
"}#@#@#4#Y@T@@#`@ #d@k#l#m#d@n#n#,#9 `@}@[#}#A@@#U@A@`@`@@#U@4#U@8#k#8#2#k#o#p#~#q#6#6#d+k#}@k#T@5#}#T@}#[#r#A@Y@T@5#T@@#@#@#@#4#",
"5#T@o#T@}@h@9 `@<#8#Z@8#2#8#s# #f#Y@U@5#A@b#}#[#[#}#4#5#4#2#8#2#t#u#X@X@}#v#X@X@o#v#u#g#w#x#g#p#x#s#x#y#m#p#x#}@o#@#@#[#a#[#d#9#",
"5#d#v#@#a#@#@#}#U@}@}@Y@Y@z#}#A#B#9#9#9#C#a#}#d#@#9#9#[#[#d#@#}#Y@}@U@@#a#5#5#A@A@U@r#o#}#A@6#6#T@2#6#D#6#u#T@}@A@@#6#X@4#}#E#F#",
"a#9#4#a#5#U@[#G#[#b#H#_#}#a#}#I#J#K#[#L#M#N#O#N#P#5#4#2#Q#[#G#R#d#S#U@4#P#[#d#j#[#T#P#j#d#d#4#U@a#a#A@5#a#[#d#b#G#G#P#U#V#T#G#b#",
"b#L#W#X#Q#Y#Z#`# $.$P#+$4#9#d#I#@$#$$$T#j#%$}#[#U@G#9#5#A@4#4#A@U@v#5#4#Y@@#5#A@Y@4#4#A@U@T@A@H#Y@`@Y@@#U@}#d#b#&$*$C#P#[#b#9#[#",
"$$=$b#-$;$_#a#C#C#>$4#H#,$[#'$)$!$~$B#b#L#d#d#{$e#I#]$[#5#9#4#5#A@}#9#j#4#9#a#d#}#9#a#[#j#^$/$($9#@#@#`@`@T@T@4#9#d#}#9#b#a#d#C#",
"}#_$f#:$X#5#b#<$B#Y#Y#9#[#[$}$X#|$1$2$b#<$L#G#P#[#b#C#b#@#}#@#A@T@T@[#[#[#@#A@A@}#d#X@Y@4#4#_#}$P#j#[#9#Y@Y@4#$$[#C#P#j#b#d#9#[#",
",$}#9#3$b#4$S#@#2#r#r#<$9#}#d#{$5$I#G#Y#6$7$8$9$0$C#j#X#`#C#E#b#a#9#a#4#[#d#5#U@4#}#T#a$b$[#@#2#a#}#5#5#4#d#j#T#<$$$T#T#C#M#P#j#",
"c$[#U@7#A#a#o#X@r#d$r#o#5#7#[#b#C#P#G#C#P#j#b#B#I#}#9#b#j#G#j#e$[#a#4$[#j#M#b#a#G#C#M#f$g$1$g$.$j#b#P#b#[#P#X#C#O#I#3$h$<$i$h$V#"};
