/* XPM */
static char *rcp0241172691427[] = {
/* columns rows colors chars-per-pixel */
"64 64 130 2 ",
"   c #1E1E24",
".  c #3C3C41",
"X  c #414145",
"o  c #46464A",
"O  c #4A4A4E",
"+  c #4E4E52",
"@  c #525256",
"#  c #555559",
"$  c #59595D",
"%  c #5E5E62",
"&  c #626265",
"*  c #656569",
"=  c #6A6A6E",
"-  c #6D6D71",
";  c #727275",
":  c #767679",
">  c #7A7A7D",
",  c #54768F",
"<  c #7E7E81",
"1  c #828285",
"2  c #868689",
"3  c #8A8A8D",
"4  c #8E8E91",
"5  c #929294",
"6  c #979799",
"7  c #9A9A9C",
"8  c #9E9EA1",
"9  c #A3A3A5",
"0  c #A6A6A8",
"q  c #ABABAD",
"w  c #AEAEB0",
"e  c #B3B3B4",
"r  c #B6B6B8",
"t  c #BBBBBD",
"y  c #BEBEC0",
"u  c #C3C3C5",
"i  c #C7C7C8",
"p  c #CBCBCD",
"a  c #CBCBCC",
"s  c #CCCCCD",
"d  c #CDCDCE",
"f  c #CDCDCF",
"g  c #CECECF",
"h  c #C9C9CA",
"j  c #CFCFD1",
"k  c #CFCFD0",
"l  c #D0D0D1",
"z  c #D1D1D2",
"x  c #D2D2D3",
"c  c #D3D3D4",
"v  c #D4D4D5",
"b  c #D5D5D6",
"n  c #D6D6D7",
"m  c #D2D2D3",
"M  c #D7D7D8",
"N  c #D8D8D9",
"B  c gray85",
"V  c #D9D9DA",
"C  c #DADADB",
"Z  c gray86",
"A  c #DBDBDC",
"S  c gainsboro",
"D  c #DCDCDD",
"F  c #DDDDDE",
"G  c gray87",
"H  c #DEDEDF",
"J  c #DBDBDB",
"K  c #DFDFE0",
"L  c #E0E0E1",
"P  c #E1E1E1",
"I  c #E1E1E2",
"U  c #E2E2E2",
"Y  c #E2E2E3",
"T  c gray89",
"R  c #E3E3E4",
"E  c #E4E4E5",
"W  c gray90",
"Q  c #E5E5E6",
"!  c #E6E6E6",
"~  c #E6E6E7",
"^  c #E7E7E7",
"/  c #E3E3E3",
"(  c #E7E7E8",
")  c gray91",
"_  c #E8E8E9",
"`  c #E9E9E9",
"'  c #E9E9EA",
"]  c #EAEAEA",
"[  c #EAEAEB",
"{  c gray92",
"}  c #EBEBEC",
"|  c #ECECEC",
" . c #ECECED",
".. c gray93",
"X. c #EDEDEE",
"o. c #EEEEEE",
"O. c #EEEEEF",
"+. c #EFEFEF",
"@. c #ECECED",
"#. c #EFEFF0",
"$. c gray94",
"%. c #F0F0F1",
"&. c #F1F1F1",
"*. c #F1F1F2",
"=. c gray95",
"-. c #F3F3F3",
";. c #F3F3F4",
":. c #F4F4F4",
">. c #F4F4F5",
",. c gray96",
"<. c #F5F5F6",
"1. c #F6F6F6",
"2. c #F6F6F7",
"3. c gray97",
"4. c #F4F4F4",
"5. c #F8F8F8",
"6. c #F9F9F9",
"7. c #F9F9FA",
"8. c gray98",
"9. c #FBFAFA",
"0. c #FBFBFB",
"q. c #FBFBFC",
"w. c gray99",
"e. c #FCFCFD",
"r. c #FDFDFD",
"t. c #FDFDFE",
"y. c #FEFEFE",
"u. c #FEFEFF",
"i. c white",
"p. c #FFFFFF",
/* pixels */
", 9.i.i.i.i.i.i.i.i.i.i.i.i.i.i.i.i.i.i.i.i.i.i.i.i.i.i.i.i.i.i.i.i.i.i.i.i.i.i.i.i.i.i.i.i.i.i.i.i.i.i.i.i.i.i.i.i.i.i.i.i.i.i.",
", 9.i.i.i.i.i.i.i.i.i.i.i.i.i.i.i.i.i.i.i.i.i.i.i.i.i.i.i.i.i.i.i.i.i.i.i.i.i.i.i.i.i.i.i.i.i.i.i.i.i.i.i.i.i.i.i.i.i.i.i.i.i.i.",
", 9.i.i.i.i.i.i.i.i.i.i.i.i.i.i.i.i.i.i.i.i.i.i.i.i.i.i.i.i.i.i.i.i.i.i.i.i.i.i.i.i.i.i.i.i.i.i.i.i.i.i.i.i.i.i.i.i.i.i.i.i.i.i.",
", 9.i.i.i.i.i.i.i.i.i.i.i.i.i.i.i.i.i.i.i.i.i.i.i.i.i.i.i.i.i.i.i.i.i.i.i.i.i.i.i.i.i.i.i.i.i.i.i.i.i.i.i.i.i.i.i.i.i.i.i.i.i.i.",
", 9.i.i.i.i.i.i.i.i.i.i.i.i.i.i.i.i.i.i.i.i.i.i.i.i.i.i.i.i.i.i.i.i.i.i.i.i.i.i.i.i.i.i.i.i.i.i.i.i.i.i.i.i.i.i.i.i.i.i.i.i.i.i.",
", 9.i.i.i.i.i.i.i.i.i.i.i.i.i.i.i.i.i.i.i.i.i.i.i.i.i.i.i.i.i.i.i.i.i.i.i.i.i.i.i.i.i.i.i.i.i.i.i.i.i.i.i.i.i.i.i.i.i.i.i.i.i.i.",
", 9.i.i.i.i.i.i.i.i.i.i.i.i.i.i.i.i.i.i.i.i.i.i.i.i.i.i.i.i.i.i.i.i.i.i.i.i.i.i.i.i.i.i.i.i.i.i.i.i.i.i.i.i.i.i.i.i.i.i.i.i.i.i.",
", 9.i.i.i.i.i.i.i.i.i.i.i.i.i.i.i.i.i.i.i.i.i.i.i.i.i.i.i.i.i.i.i.i.i.i.i.i.i.i.i.i.i.i.i.i.i.i.i.i.i.i.i.i.i.i.i.i.i.i.i.i.i.i.",
", 9.i.i.i.i.i.i.i.i.i.i.i.i.i.i.i.i.i.i.i.i.i.i.i.i.i.i.i.i.i.i.i.i.i.i.i.i.i.i.i.i.i.i.i.i.i.i.i.i.i.i.i.i.i.i.i.i.i.i.i.i.i.i.",
", 9.i.i.i.i.i.i.i.i.i.i.i.i.i.i.i.i.i.i.i.i.i.i.i.i.i.i.i.i.i.i.i.i.i.i.i.i.i.i.i.i.i.i.i.i.i.i.i.i.i.i.i.i.i.i.i.i.i.i.i.i.i.i.",
", 9.i.i.i.i.i.i.i.i.i.i.i.i.i.i.i.i.i.i.i.i.i.i.i.i.i.i.i.i.i.i.i.i.i.i.i.i.i.i.i.i.i.i.i.i.i.i.i.i.i.i.i.i.i.i.i.i.i.i.i.i.i.i.",
", 9.i.i.i.i.i.i.i.i.i.i.i.i.i.i.i.i.i.i.i.i.i.i.i.i.i.i.i.i.i.i.i.i.i.i.i.i.i.i.i.i.i.i.i.i.i.i.i.i.i.i.i.i.i.i.i.i.i.i.i.i.i.i.",
", 9.i.i.i.i.i.i.i.i.i.i.i.i.i.i.i.i.i.i.i.i.i.i.i.i.i.i.i.i.i.i.i.i.i.i.i.i.i.i.i.i.i.i.i.i.i.i.i.i.i.i.i.i.i.i.i.i.i.i.i.i.i.i.",
", 9.i.i.i.i.i.i.i.i.i.i.i.i.i.i.i.i.i.i.i.i.i.i.i.i.i.i.i.i.i.i.i.i.i.i.i.i.i.i.i.i.i.i.i.i.i.i.i.i.i.i.i.i.i.i.i.i.i.i.i.i.i.i.",
", 9.i.i.i.i.i.i.i.i.i.i.i.i.i.i.i.i.i.i.i.i.i.i.i.i.i.i.i.i.i.i.i.i.i.i.i.i.i.i.i.i.i.i.i.i.i.i.i.i.i.i.i.i.i.i.i.i.i.i.i.i.i.i.",
", 9.i.i.i.i.i.i.i.i.i.i.i.i.i.i.i.i.i.i.i.i.i.i.i.i.i.i.i.i.i.i.i.i.i.i.i.i.i.i.i.i.i.i.i.i.i.i.i.i.i.i.i.i.i.i.i.i.i.i.i.i.i.i.",
", 9.i.i.i.i.i.i.i.i.i.i.i.i.i.i.i.i.i.i.i.i.i.i.i.i.i.i.i.i.i.i.i.i.i.i.i.i.i.i.i.i.i.i.i.i.i.i.i.i.i.i.i.i.i.i.i.i.i.i.i.i.i.i.",
", 9.i.i.i.9.9 u i.i.i.i.i.:.^ i.i.i.i.i.i.i.$.i.i.i.i.i.i.i.i.i.i.i.i.i.i.:.^ i.i.i.i.i.i.i.i.i.i.i.i.i.i.i.i.i.i.i.i.i.i.i.i.i.",
", 9.i.9.i.7 - R i.i.i.i.i.u > i.u :.i.i.i.[ = i.i.i.i.i.i.i.i.i.i.i.i.i.i.s : i.i.i.i.t i.i.i.i.i.i.i.i.i.i.i.i.i.i.i.i.i.i.i.i.",
", 9.i.i.A $ 5 $.i.l e +.i.[ b I O 5 :.i.i.^ & i.i.[ e A i.i.i.i.i.[ e B i.+.s i.i.i.y X e :.l i.i.A ^ i.i.i.i.i.i.i.i.i.i.i.i.i.",
", 9.i.i.i @ = I 8 & 7 & :.u : B O < [ i.i.^ * i.B & 6 & r i.9.i.K * 8 $ i B = i.i.i.q o 8 ^ % ;.i.< 0 i.i.i.i.i.i.i.i.i.i.i.i.i.",
", 9.i.9.i.1 i i.F :.i.* t b ; i.; F i.9.i.^ & i.: q i.s @ i.i.i.r $ i.:.$.l ; i.i.i.i.* i.:.* :.i.2 w i.i.i.i.i.i.i.i.i.i.i.i.i.",
", 9.i.i.i.> r i.r * 1 # u l ; i.- s i.i.i.^ * i.* = ; : 1 :.i.i.i.9 $ ; $.c - i.i.i.$.& $.$.* :.i.3 q i.i.i.i.i.i.i.i.i.i.i.i.i.",
", 9.i.i.i.> t i.o [ i.: t b ; i.* B i.9.i.^ & i.; r i.9.l i.i.i.F [ i.6 : K - i.i.i.$.% i.9.# :.i.= e i.i.i.i.i.i.i.i.i.i.i.i.i.",
", 9.i.i.i.> r i.> : 5 o u l - i.6 $ I i.i.9.$ 0 R $ 4 * 6 i.9.i.s @ 6 * t B = i.i.i.i.; ; i.3 % 6 + r i.i.i.i.i.i.i.i.i.i.i.i.i.",
", 9.i.i.i.^ $.i.i.y l +.$.:.^ i.i.l +.i.i.i.+.M i.+.r b i.i.i.i.i.[ r B i.:.^ i.i.i.i.9.s 9.i.u l +.+.i.i.i.i.i.i.i.i.i.i.i.i.i.",
", 9.i.i.i.i.i.i.i.i.i.i.i.i.i.i.i.i.i.i.i.i.i.i.i.i.i.i.i.i.i.i.i.i.i.i.i.i.i.i.i.i.i.i.i.i.i.i.i.i.i.i.i.i.i.i.i.i.i.i.i.i.i.i.",
", 9.i.i.i.i.i.i.i.i.i.i.i.i.i.i.i.i.i.i.i.i.i.i.i.i.i.i.i.i.i.i.i.i.i.i.i.i.i.i.i.i.i.i.i.i.i.i.i.i.i.i.i.i.i.i.i.i.i.i.i.i.i.i.",
", 9.i.i.i.i.i.i.i.i.i.i.i.i.i.i.i.i.i.i.i.i.i.i.i.i.i.i.i.i.i.i.i.i.i.i.i.i.i.i.i.i.i.i.i.i.i.i.i.i.i.i.i.i.i.i.i.i.i.i.i.i.i.i.",
", 9.i.i.i.i.i.i.i.i.i.i.i.i.i.i.i.i.i.i.i.i.i.i.i.i.i.i.i.i.i.i.i.i.i.i.i.i.i.i.i.i.i.i.i.i.i.i.i.i.i.i.i.i.i.i.i.i.i.i.i.i.i.i.",
", 9.i.i.i.i.i.i.i.i.i.i.i.i.i.i.i.i.i.i.i.i.i.i.i.i.i.i.i.i.i.i.i.i.i.i.i.i.i.i.i.i.i.i.i.i.i.i.i.i.i.i.i.i.i.i.i.i.i.i.i.i.i.i.",
", 9.i.i.^ [ i.i.[ ^ i.^ u 9.i.:.I i.i.I 9.F $.i.:.B i.i.i.i.9.u +.[ :.i.+.u +.i.i.i.c B $.[ 9.( [ i i.i.i.i.i I i.i.^ +.l i.i.i.",
", 9.i.i.t = i.i.= i s % 1 & $.B * i.i.= b y * i.: 9 i.q.i.+.& : < + [ u # 3 & M i.3 & 3 @ 9 #.O 2 = = i.:.= < & q i.* & 4 i.i.i.",
", 9.i.i.i.% [ [ % i.% B i.7 2 [ = i.i.; i i.2 : < i.i.i.i.3 4 i.+.o ^ I ^ i.2 6 ^ # i.i.= 7 $.+ 9.i.% F 8 3 i.[ + 9.* u i.i.i.i.",
", 9.i.9.i.4 w e 5 9.O : ; = 6 F - i.i.: i i.^   A i.i.i.i.; s i.i.; F ^ ; > $ 0 u 1 i.i.0 7 +.= i.i.: l 2 % ; ; = [ ; F i.i.i.i.",
", 9.i.i.i.M ; ; B i.# ( i.^ [ F % i.i.& a i.< 1 < i.i.i.i.1 6 i.:.O [ & t i.7 6 F $ i.i.: 7 +.* i.i.; B 5 6 i.i.b i.= B i.i.i.i.",
", 9.i.i.i.i.& & i.i.0 & 0 % r i.& > 6 X F w - i.: 7 i.9.i.( % 1 1 + [ 5 : 0 O 4 i.1 = 4 @ 0 [ % i.i.- i $.$ 7 < > i.& B i.i.i.i.",
", 9.i.i.i.i.I I i.i.i.s 9 b i.i.;.0 s K $.l $.i.:.s i.i.i.:.B a [ & I i.e r I I i.I a [ 5 7 i.c i.i.B +.i.+.0 r i.i.b :.i.i.i.i.",
", 9.i.i.i.i.i.i.i.i.i.i.i.i.i.i.i.i.i.i.i.i.i.i.i.i.i.i.i.B & 7 ; 2 i.i.i.i.i.i.i.< 1 5 & ^ i.i.i.i.i.i.i.i.i.i.i.i.i.i.i.i.i.i.",
", 9.i.i.i.i.i.i.i.i.i.i.i.i.i.i.i.i.i.i.i.i.i.i.i.i.i.i.i.i.$.y l i.i.i.i.i.i.i.i.i.a u :.i.i.i.i.i.i.i.i.i.i.i.i.i.i.i.i.i.i.i.",
", 9.i.i.i.i.i.i.i.i.i.i.i.i.i.i.i.i.i.i.i.i.i.i.i.i.i.i.i.i.i.i.i.i.i.i.i.i.i.i.i.i.i.i.i.i.i.i.i.i.i.i.i.i.i.i.i.i.i.i.i.i.i.i.",
", 9.i.i.i.i.i.i.i.i.i.i.i.i.i.i.i.i.i.i.i.i.i.i.i.i.i.i.i.i.i.i.i.i.i.i.i.i.i.i.i.i.i.i.i.i.i.i.i.i.i.i.i.i.i.i.i.i.i.i.i.i.i.i.",
", 9.i.i.i.i.i.i.i.i.i.i.i.i.i.i.i.i.l ; i.i.i.i.i.i.i.i.i.i.i.i.i.i.i.i.i.i.i.i.i.i.i.i.i.i.i.i.i.i.i.i.i.i.i.i.i.i.i.i.i.i.i.i.",
", 9.i.i.i.i.} A i.i.i.i.B :.i.i.i.i.+.a i.i.$.B i.i.:.+.i.i.[ i.^ 9.i.9.^ i.i.i.i.i.i.i.i.i.i.i.i.i.i.i.i.i.i.i.i.i.i.i.i.i.i.i.",
", 9.i.i.i.q % - ; 9.:.- ; & a i.9.i.b : i.u & ; ; i.u > i.i.* +.9 < i.: q i.i.i.i.i.i.i.i.i.i.i.i.i.i.i.i.i.i.i.i.i.i.i.i.i.i.i.",
", 9.i.i.^ @ +.i.7 ( 5 7 i.b $ i.i.i.l - i.% I i.2 8 l : i.i.* I i.; 3 > i.i.i.i.i.i.i.i.i.i.i.i.i.i.i.i.i.i.i.i.i.i.i.i.i.i.i.i.",
", 9.i.i.t > i.:.i.i.= = : : & $.i.i.j : [ O > : * 6 s > i.i.= F i.M   [ i.i.i.i.i.i.i.i.i.i.i.i.i.i.i.i.i.i.i.i.i.i.i.i.i.i.i.i.",
", 9.i.i.l & i.i.B :.: q i.+.B i.i.i.l ; $.# +.i.I $.u ; i.i.% I i.1 - 5 i.i.i.i.i.i.i.i.i.i.i.i.i.i.i.i.i.i.i.i.i.i.i.i.i.i.i.i.",
", 9.i.i.i.: 1 q @ [ l $ r 1 2 i.i.i.j - i.3 : t & u 9.+ 7 6 . $.9 ; i.& r i.i.i.i.i.i.i.i.i.i.i.i.i.i.i.i.i.i.i.i.i.i.i.i.i.i.i.",
", 9.i.i.i.i.q 6 R i.i.b 5 q 9.i.i.i.A = i.i.r 5 a i.i.F 5 i s :.u +.i.^ u i.i.i.i.i.i.i.i.i.i.i.i.i.i.i.i.i.i.i.i.i.i.i.i.i.i.i.",
", 9.i.i.i.i.i.i.i.i.i.i.i.i.i.i.i.i.- 3 i.i.i.i.i.i.i.i.i.i.i.i.i.i.i.i.i.i.i.i.i.i.i.i.i.i.i.i.i.i.i.i.i.i.i.i.i.i.i.i.i.i.i.i.",
", 9.i.i.i.i.i.i.i.i.i.i.i.i.i.i.i.:.u 9.i.i.i.i.i.i.i.i.i.i.i.i.i.i.i.i.i.i.i.i.i.i.i.i.i.i.i.i.i.i.i.i.i.i.i.i.i.i.i.i.i.i.i.i.",
", 9.i.i.i.i.i.i.i.i.i.i.i.i.i.i.i.i.i.i.i.i.i.i.i.i.i.i.i.i.i.i.i.i.i.i.i.i.i.i.i.i.i.i.i.i.i.i.i.i.i.i.i.i.i.i.i.i.i.i.i.i.i.i.",
", 9.i.i.i.i.i.i.i.i.i.i.i.i.i.i.i.i.i.i.i.i.i.i.i.i.i.i.i.i.i.i.i.i.i.i.i.i.i.i.i.i.i.i.i.i.i.i.i.i.i.i.i.i.i.i.i.i.i.i.i.i.i.i.",
", 9.i.i.i.i.i.i.i.i.i.i.i.i.i.i.i.i.i.i.i.i.i.i.i.i.i.i.i.i.i.i.i.i.i.i.i.i.i.i.i.i.i.i.i.i.i.i.i.i.i.i.i.i.i.i.i.i.i.i.i.i.i.i.",
", 9.i.i.i.i.i.i.i.i.i.i.i.i.i.i.i.i.i.i.i.i.i.i.i.i.i.i.i.i.i.i.i.i.i.i.i.i.i.i.i.i.i.i.i.i.i.i.i.i.i.i.i.i.i.i.i.i.i.i.i.i.i.i.",
", 9.i.i.i.i.i.i.i.i.i.i.i.i.i.i.i.i.i.i.i.i.i.i.i.i.i.i.i.i.i.i.i.i.i.i.i.i.i.i.i.i.i.i.i.i.i.i.i.i.i.i.i.i.i.i.i.i.i.i.i.i.i.i.",
", 9.i.i.i.i.i.i.i.i.i.i.i.i.i.i.i.i.i.i.i.i.i.i.i.i.i.i.i.i.i.i.i.i.i.i.i.i.i.i.i.i.i.i.i.i.i.i.i.i.i.i.i.i.i.i.i.i.i.i.i.i.i.i.",
", 9.i.i.i.i.i.i.i.i.i.i.i.i.i.i.i.i.i.i.i.i.i.i.i.i.i.i.i.i.i.i.i.i.i.i.i.i.i.i.i.i.i.i.i.i.i.i.i.i.i.i.i.i.i.i.i.i.i.i.i.i.i.i.",
", 9.i.i.i.i.i.i.i.i.i.i.i.i.i.i.i.i.i.i.i.i.i.i.i.i.i.i.i.i.i.i.i.i.i.i.i.i.i.i.i.i.i.i.i.i.i.i.i.i.i.i.i.i.i.i.i.i.i.i.i.i.i.i.",
", 9.i.i.i.i.i.i.i.i.i.i.i.i.i.i.i.i.i.i.i.i.i.i.i.i.i.i.i.i.i.i.i.i.i.i.i.i.i.i.i.i.i.i.i.i.i.i.i.i.i.i.i.i.i.i.i.i.i.i.i.i.i.i.",
", 9.i.i.i.i.i.i.i.i.i.i.i.i.i.i.i.i.i.i.i.i.i.i.i.i.i.i.i.i.i.i.i.i.i.i.i.i.i.i.i.i.i.i.i.i.i.i.i.i.i.i.i.i.i.i.i.i.i.i.i.i.i.i.",
", 9.i.i.i.i.i.i.i.i.i.i.i.i.i.i.i.i.i.i.i.i.i.i.i.i.i.i.i.i.i.i.i.i.i.i.i.i.i.i.i.i.i.i.i.i.i.i.i.i.i.i.i.i.i.i.i.i.i.i.i.i.i.i.",
", 9.i.i.i.i.i.i.i.i.i.i.i.i.i.i.i.i.i.i.i.i.i.i.i.i.i.i.i.i.i.i.i.i.i.i.i.i.i.i.i.i.i.i.i.i.i.i.i.i.i.i.i.i.i.i.i.i.i.i.i.i.i.i."
};
