/* XPM */
static char *rcp02412309831165[] = {
/* columns rows colors chars-per-pixel */
"64 64 129 2 ",
"   c #1F1F24",
".  c #222227",
"X  c #25252B",
"o  c #29292E",
"O  c #2D2D32",
"+  c #313136",
"@  c #35353A",
"#  c #39393E",
"$  c #3D3D42",
"%  c #414146",
"&  c #45454A",
"*  c #49494E",
"=  c #4D4D52",
"-  c #515156",
";  c #555559",
":  c #5A5A5E",
">  c #5E5E62",
",  c #626266",
"<  c #66666A",
"1  c #6A6A6E",
"2  c #6D6D70",
"3  c #727276",
"4  c #76767A",
"5  c #7A7A7D",
"6  c #7E7E81",
"7  c #7A92A5",
"8  c #838386",
"9  c #868689",
"0  c #8A8A8D",
"q  c #8E8E91",
"w  c #939395",
"e  c #969699",
"r  c #9A9A9D",
"t  c #9E9EA1",
"y  c #A2A2A4",
"u  c #A6A6A8",
"i  c #ABABAD",
"p  c #AFAFB1",
"a  c #B3B3B5",
"s  c #B6B6B8",
"d  c #BBBBBC",
"f  c #BFBFC1",
"g  c #C6C6C7",
"h  c #C4C4C6",
"j  c #C2C2C3",
"k  c #C6C6C8",
"l  c #C7C7C8",
"z  c #C7C7C9",
"x  c #C8C8C9",
"c  c #C8C8CA",
"v  c #C9C9CB",
"b  c #CBCBCC",
"n  c #CBCBCD",
"m  c #CECECF",
"M  c #CBCBCD",
"N  c #CFCFD0",
"B  c #CFCFD0",
"V  c #D0D0D1",
"C  c #D0D0D2",
"Z  c #D3D3D4",
"A  c #D3D3D5",
"S  c #D4D4D5",
"D  c #D5D5D6",
"F  c #D6D6D7",
"G  c #D3D3D4",
"H  c #D7D7D8",
"J  c #D8D8D9",
"K  c #D9D9DA",
"L  c #DADADB",
"P  c #DBDBDC",
"I  c gainsboro",
"U  c #DCDCDD",
"Y  c #DDDDDE",
"T  c #DEDEDF",
"R  c #DBDBDC",
"E  c #DFDFE0",
"W  c #DFDFE0",
"Q  c #E2E2E2",
"!  c #E2E2E3",
"~  c gray89",
"^  c #E3E3E4",
"/  c #E4E4E4",
"(  c #E4E4E5",
")  c #E5E5E6",
"_  c #E6E6E6",
"`  c #E6E6E7",
"'  c #E2E2E3",
"]  c #E7E7E8",
"[  c #E7E7E8",
"{  c gray91",
"}  c #E8E8E9",
"|  c #E9E9EA",
" . c #EAEAEB",
".. c gray92",
"X. c #EDEDEE",
"o. c #EEEEEE",
"O. c #EBEBEC",
"+. c #EFEFF0",
"@. c #EFEFF0",
"#. c gray94",
"$. c #F1F1F1",
"%. c gray95",
"&. c #F2F2F3",
"*. c #F3F3F3",
"=. c #F3F3F4",
"-. c #F4F4F4",
";. c #F4F4F5",
":. c gray96",
">. c #F5F5F6",
",. c #F6F6F6",
"<. c #F6F6F7",
"1. c gray97",
"2. c #F3F3F3",
"3. c #F7F7F8",
"4. c #F8F8F8",
"5. c #F8F8F9",
"6. c #F9F9F9",
"7. c gray98",
"8. c #FBFBFB",
"9. c #FBFBFC",
"0. c gray99",
"q. c #FCFCFD",
"w. c #FDFDFD",
"e. c #FDFDFE",
"r. c #FEFEFE",
"t. c #FEFEFF",
"y. c #FEFFFF",
"u. c white",
"i. c #FFFFFF",
/* pixels */
"7 u.u.u.u.u.u.u.u.u.u.u.u.u.u.u.u.u.u.u.u.u.u.u.u.u.u.u.u.u.u.u.u.u.u.u.u.u.u.u.u.u.u.u.u.u.u.u.u.u.u.u.u.u.u.u.u.u.u.u.u.u.u.u.",
"7 u.u.u.u.u.u.u.u.u.u.u.u.u.u.u.u.u.u.u.u.u.u.u.u.u.u.u.u.u.u.u.u.u.u.u.u.u.u.u.u.u.u.u.u.u.u.u.u.u.u.u.u.u.u.u.u.u.u.u.u.u.u.u.",
"7 u.u.u.u.u.u.u.u.u.u.u.u.u.u.u.u.u.u.u.u.u.u.u.u.u.u.u.u.u.u.u.u.u.u.u.u.u.u.u.u.u.u.u.u.u.u.u.u.u.u.u.u.u.u.u.u.u.u.u.u.u.u.u.",
"7 u.u.u.u.u.u.u.u.u.u.u.u.u.u.u.u.u.u.u.u.u.u.u.u.u.u.u.u.u.u.u.u.u.u.u.u.u.u.u.u.u.u.u.u.u.u.u.u.u.u.u.u.u.u.u.u.u.u.u.u.u.u.u.",
"7 u.u.u.u.u.u.u.u.u.u.u.u.u.u.u.u.u.u.u.u.u.u.u.u.u.u.u.u.u.u.u.u.u.u.u.u.u.u.u.u.u.u.u.u.u.u.u.u.u.u.u.u.u.u.u.u.u.u.u.u.u.u.u.",
"7 u.u.u.u.u.u.u.u.u.u.u.u.u.u.u.u.u.u.u.u.u.u.u.u.u.u.u.u.u.u.u.u.u.u.u.u.u.u.u.u.u.u.u.u.u.u.u.u.u.u.u.u.u.u.u.u.u.u.u.u.u.u.u.",
"7 u.u.u.u.u.u.u.u.u.u.u.u.u.u.u.u.u.u.u.u.u.u.u.u.u.u.u.u.u.u.u.u.u.u.u.u.u.u.u.u.u.u.u.u.u.u.u.u.u.u.u.u.u.u.u.u.u.u.u.u.u.u.u.",
"7 u.u.u.u.u.u.u.u.u.u.u.u.u.u.u.u.u.u.u.u.u.f w u.u.8 q u.u.u.u.u.u.,.8 K u.u.u.u.u.u.u.u.u.u.u.u.u.u.u.u.u.u.u.u.u.u.u.u.u.u.u.",
"7 u.u.u.u.u.u.u.u.u.u.u.u.u.u.u.u.u.u.u.7.u.w & u.u.4 6 u.u.u.u.u.u.*.O f u.u.u.u.u.u.u.u.u.u.u.u.u.u.u.u.u.u.u.u.u.u.u.u.u.u.u.",
"7 u.u.u.u.u.) ,.u.u.u.u.) ,.u.u.7.! ,.u.u.u.r ; u.u.*.,.u.u.u.u.! 7.u.$ h u.7.u.7.^ 7.u.u.u.u.u.u.u.u.u.u.u.u.u.u.u.u.u.u.u.u.u.",
"7 u.u.u.u.u., 4 u.7.u.c + ^ u.e % % $ r u.u.r - u.u.2 5 u.u.c * $ & u & j u.u.i % % % y u.u.u.u.u.u.u.u.u.u.u.u.u.u.u.u.u.u.u.u.",
"7 u.u.u.u.u.a @ ,.u.u.4 > u.a o d ,.f O j u.e - u.u.1 4 u.! O 8 +.F > o h u.d O a *.d o a u.u.u.u.u.u.u.u.u.u.u.u.u.u.u.u.u.u.u.",
"7 u.u.u.u.u.,.# a u.,.# a u...,.u.u.u.= w u.e - u.u.1 4 u.0 * u.u.u.K . l u.- r u.u.u.t - u.u.u.u.u.u.u.u.u.u.u.u.u.u.u.u.u.u.u.",
"7 u.u.u.u.u.u.4 , u.a $ ,.u.u.h 4 > - o r u.e - u.u.1 5 u.< 4 u.7.u.,.$ h u.% - < , 1 = # ,.u.u.u.u.u.u.u.u.u.u.u.u.u.u.u.u.u.u.",
"7 u.u.u.u.u.u.n + 7.2 5 u.u.r O 9 p U ; w u.e - u.u.1 4 u.1 3 u.7.u.,.# h u.$ 5 i y y i h 7.u.u.u.u.u.u.u.u.u.u.u.u.u.u.u.u.u.u.",
"7 u.u.u.u.u.u.u.= t = c u.u.* e u.u.u.% e u.e ; u.u.2 5 u.w $ u.u.u.n . c u.; q u.u.u.*.U u.u.u.u.u.u.u.u.u.u.u.u.u.u.u.u.u.u.u.",
"7 u.u.u.u.u.u.u.t . > u.u.u.5 & m V 5   e u.u O d u.< 3 u...# 1 K d : X j u.h X w K d O 9 u.u.u.u.u.u.u.u.u.u.u.u.u.u.u.u.u.u.u.",
"7 u.u.u.u.u.u.u...* i u.7.u.*.3 % & t 5 u u.*.3 - 7.0 w u.u.K : % - j 1 n u.u.f - & & w u.u.u.u.u.u.u.u.u.u.u.u.u.u.u.u.u.u.u.u.",
"7 u.u.u.u.u.u.u.u.u.u.u.u.u.u.u.,.7.u.u.u.u.u.u.u.u.u.u.u.u.u.u.*.u.u.u.u.u.u.u.u.*.u.u.u.u.u.u.u.u.u.u.u.u.u.u.u.u.u.u.u.u.u.u.",
"7 u.u.u.u.u.u.u.u.u.u.u.u.u.u.u.u.u.u.u.u.u.u.u.u.u.u.u.u.u.u.u.u.u.u.u.u.u.u.u.u.u.u.u.u.u.u.u.u.u.u.u.u.u.u.u.u.u.u.u.u.u.u.u.",
"7 u.u.u.u.u.u.u.u.u.u.u.u.u.u.u.u.u.u.u.u.u.u.u.u.u.u.u.u.u.u.u.u.u.u.u.u.u.u.u.u.u.u.u.u.u.u.u.u.u.u.u.u.u.u.u.u.u.u.u.u.u.u.u.",
"7 u.u.u.u.u.u.u.u.u.u.u.u.u.u.u.u.u.u.u.u.u.u.u.u.u.u.u.u.u.u.u.u.u.u.u.u.u.u.u.u.u.u.u.u.u.u.u.u.u.u.u.u.u.u.u.u.u.u.u.u.u.u.u.",
"7 u.u.u.u.u.u.u.u.u.u.u.u.u.u.u.u.u.u.u.u.u.u.u.u.u.u.u.u.u.u.u.u.u.u.u.u.u.u.u.u.u.u.u.u.u.u.u.u.u.u.u.u.u.u.u.u.u.u.u.u.u.u.u.",
"7 u.u.u.u.u.u.u.u.u.u.u.u.u.u.u.u.u.u.u.u.u.u.u.u.u.u.u.u.u.u.u.u.u.u.u.u.u.u.u.u.u.u.u.u.u.u.u.u.u.u.u.u.u.u.u.u.u.u.u.u.u.u.u.",
"7 u.u.u.u.u.u.u.u.u.u.u.u.u.u.u.u.u.u.u.u.u.u.u.u.u.u.u.u.u.u.u.u.u.u.u.u.u.u.u.u.u.u.u.u.u.u.u.u.u.u.u.u.u.u.u.u.u.u.u.u.u.u.u.",
"7 u.u.u.u.u.u.u.u.u.u.u.u.u.u.u.u.u.9.u.u.u.u.u.u.u.9.u.u.u.u.u.u.u.u.9.u.u.u.u.u.u.u.u.u.u.u.u.u.u.u.u.u.u.u.u.u.u.u.u.u.u.u.u.",
"7 u.u.u.u.u.u.u.u.u.u.u.u.u.u.u.u.u.u.u.u.u.u.u.u.u.u.u.u.u.u.u.u.u.u.u.u.u.u.u.u.u.u.u.u.u.u.u.u.u.u.u.u.u.u.u.u.u.u.u.u.u.u.u.",
"7 u.u.u.u.u.u.u.u.u.K y ,.r q ..u.d 8 p u.u.u.u.,.u 8 i 7.u.u.K y =.r 9 c u.u.u.u.u.u.u.u.u.u.u.u.u.u.u.u.u.u.u.u.u.u.u.u.u.u.u.",
"7 u.u.u.u.u.u.u.u.u.a + 2 2 & ; q - 3 o 5 u.u...& * 5 % - *.u.a O , < , X i u.u.u.u.u.u.u.u.u.u.u.u.u.u.u.u.u.u.u.u.u.u.u.u.u.u.",
"7 u.u.u.u.u.u.u.u.u.j o j u.u.* ; u.u.f O ..u.< ; u.u.u.& 5 u.j . d u.u.9 & u.u.u.u.u.u.u.u.u.u.u.u.u.u.u.u.u.u.u.u.u.u.u.u.u.u.",
"7 u.u.u.u.u.u.u.u.u.d $ u.u.u.< 0 u.u.! @ ! 7.+ j u.,.u.p # u.d # u.u.u.j $ ,.u.u.u.u.u.u.u.u.u.u.u.u.u.u.u.u.u.u.u.u.u.u.u.u.u.",
"7 u.u.u.u.u.u.u.u.u.d $ 3.u.u., 9 u.u.U @ ) ..+ F u.7.u.h @ u.f $ 7.u.u.f $ ,.u.u.u.u.u.u.u.u.u.u.u.u.u.u.u.u.u.u.u.u.u.u.u.u.u.",
"7 u.u.u.u.u.u.u.u.u.d $ 7.u.u., 9 u.u.U @ ^ ,.+ h u.,.u.a # u.d $ 7.u.u.f $ ,.u.u.u.u.u.u.u.u.u.u.u.u.u.u.u.u.u.u.u.u.u.u.u.u.u.",
"7 u.u.u.u.u.u.u.u.u.d % 7.u.u., 9 u.u.U # U u., : u.u.u.* 4 u.d % 7.u.u.j % ,.u.u.u.u.u.u.u.u.u.u.u.u.u.u.u.u.u.u.u.u.u.u.u.u.u.",
"7 u.u.u.u.u.u.u.u.u.a + 7.u.u.; 6 u.u.P X P u.) % = 6 & = X.u.a + 7.u.u.d O ,.u.u.u.u.u.u.u.u.u.u.u.u.u.u.u.u.u.u.u.u.u.u.u.u.u.",
"7 u.u.u.u.u.u.u.u.u.) a u.u.u.j N u.u.*.p *.u.u.,.y 8 u 7.u.u.) a u.u.u.) a u.u.u.u.u.u.u.u.u.u.u.u.u.u.u.u.u.u.u.u.u.u.u.u.u.u.",
"7 u.u.u.u.u.u.u.u.u.u.u.u.u.u.u.u.u.u.u.u.u.u.u.u.u.u.u.u.u.u.u.u.u.u.u.u.u.u.u.u.u.u.u.u.u.u.u.u.u.u.u.u.u.u.u.u.u.u.u.u.u.u.u.",
"7 u.u.u.u.u.u.u.u.u.u.u.u.u.u.u.u.u.u.u.u.u.u.u.u.u.u.u.u.u.u.u.u.u.u.u.u.u.u.u.u.u.u.u.u.u.u.u.u.u.u.u.u.u.u.u.u.u.u.u.u.u.u.u.",
"7 u.u.u.u.u.u.u.u.u.u.u.u.u.u.u.u.u.u.u.u.u.u.u.u.u.u.u.u.u.u.u.u.u.u.u.u.u.u.u.u.u.u.u.u.u.u.u.u.u.u.u.u.u.u.u.u.u.u.u.u.u.u.u.",
"7 u.u.u.u.u.u.u.u.u.u.u.u.u.u.u.u.u.u.u.u.u.u.u.u.u.u.u.u.u.u.u.u.u.u.u.u.u.u.u.u.u.u.u.u.u.u.u.u.u.u.u.u.u.u.u.u.u.u.u.u.u.u.u.",
"7 u.u.u.u.u.u.u.u.u.u.u.u.u.u.u.u.u.u.u.u.u.u.u.u.u.u.u.u.u.u.u.u.u.u.u.u.u.u.u.u.u.u.u.u.u.u.u.u.u.u.u.u.u.u.u.u.u.u.u.u.u.u.u.",
"7 u.u.u.u.u.u.u.u.u.u.u.u.u.u.u.u.u.u.u.u.u.u.u.u.u.u.u.u.u.u.u.u.u.u.u.u.u.u.u.u.u.u.u.u.u.u.u.u.u.u.u.u.u.u.u.u.u.u.u.u.u.u.u.",
"7 u.u.u.u.u.u.u.u.u.u.u.u.u.u.u.u.u.u.u.u.u.u.u.u.u.u.u.) 5 U u.u.u.u.u.u.u.u.u.u.u.u.u.u.u.u.u.u.u.u.u.u.u.u.u.u.u.u.u.u.u.u.u.",
"7 u.u.u.u.u.u.u.u.u.u.u.u.u.u.u.u.u.u.u.u.u.u.u.u.u.u.u.A + l u.u.u.u.u.u.u.u.u...4 X.u.u.u.u.u.u.u.u.u.u.u.u.u.u.u.u.u.u.u.u.u.",
"7 u.u.u.u.u.u.,.u.u.,.u.u.u.u.7.7.u.7.u.u.u.u.,.u.u.u.u.u.*.u.u.u.u.u.,.u.u.u.u.V o F u.u.u.u.u.u.u.u.u.u.u.u.u.u.u.u.u.u.u.u.u.",
"7 u.u.u.u.u.n ; j ; $ : F u.u.9 5 0 + h u.n ; % & t u.u.) * K u.u.i * % ; c u.d # # # 6 u.u.u.u.u.u.u.u.u.u.u.u.u.u.u.u.u.u.u.u.",
"7 u.u.u.u.u.n O ; d P 3 @ ] u.8 X 0 h ,.U O 8 P a O e u.E + A u.i O i U 0 O K u.d @ j X.u.u.u.u.u.u.u.u.u.u.u.u.u.u.u.u.u.u.u.u.",
"7 u.u.u.u.u.N X h u.u.u.& 0 u.5 ; u.u.u.2 , u.u.u.a + 7.) @ K u.% s u.u.u.3 3 u.! @ ..u.u.u.u.u.u.u.u.u.u.u.u.u.u.u.u.u.u.u.u.u.",
"7 u.u.u.u.u.c # *.u.7.u.5 , u.4 2 u.7.u.& u u.7.u...+ H X.+ U X.@ 2 6 4 8 * * u.K @ E u.u.u.u.u.u.u.u.u.u.u.u.u.u.u.u.u.u.u.u.u.",
"7 u.u.u.u.u.c # *.u.7.u.6 , u.4 1 u.u.u.& u u.7.u...@ F X.+ U ..@ 5 q 0 9 w a u.U @ E u.u.u.u.u.u.u.u.u.u.u.u.u.u.u.u.u.u.u.u.u.",
"7 u.u.u.u.u.N X m u.u.u.= 9 u.4 1 u.7.u., 3 u.u.u.j O ,.] @ K u.$ f u.u.u.7.*.u.K @ X.u.u.u.u.u.u.u.u.u.u.u.u.u.u.u.u.u.u.u.u.u.",
"7 u.u.u.u.u.m O : V +.9 O U u.4 < u.7.u.c X y *.V # 8 u.! @ F u.e O j X.h O r u.) O y ..u.u.u.u.u.u.u.u.u.u.u.u.u.u.u.u.u.u.u.u.",
"7 u.u.u.u.u.l % p * $ % j u.u.9 5 u.u.u.u.s % & $ 8 u.u.! # H u.u.w $ & $ q u.u.u.y # 3 u.u.u.u.u.u.u.u.u.u.u.u.u.u.u.u.u.u.u.u.",
"7 u.u.u.u.u.n # 7.u.E u.u.u.u.7.7.u.u.u.u.u.u.! *.u.u.u.X.+ H u.u.u.,.E ,.u.u.u.u.u.u.7.u.u.u.u.u.u.u.u.u.u.u.u.u.u.u.u.u.u.u.u.",
"7 u.u.u.u.u.l O X.u.u.u.u.u.u.u.u.u.u.u.u.u.u.u.u.7.u.] 2 $ ,.u.u.u.u.u.u.u.u.u.u.u.u.u.u.u.u.u.u.u.u.u.u.u.u.u.u.u.u.u.u.u.u.u.",
"7 u.u.u.u.u.F < ,.u.u.u.u.u.u.u.u.u.u.u.u.u.u.u.u.u.u.d ; m u.u.u.u.u.u.u.u.u.u.u.u.u.u.u.u.u.u.u.u.u.u.u.u.u.u.u.u.u.u.u.u.u.u.",
"7 u.u.u.u.u.u.u.u.u.u.u.u.u.u.u.u.u.u.u.u.u.u.u.u.u.u.u.u.u.u.u.u.u.u.u.u.u.u.u.u.u.u.u.u.u.u.u.u.u.u.u.u.u.u.u.u.u.u.u.u.u.u.u.",
"7 u.u.u.u.u.u.u.u.u.u.u.u.u.u.u.u.u.u.u.u.u.u.u.u.u.u.u.u.u.u.u.u.u.u.u.u.u.u.u.u.u.u.u.u.u.u.u.u.u.u.u.u.u.u.u.u.u.u.u.u.u.u.u.",
"7 u.u.u.u.u.u.u.u.u.u.u.u.u.u.u.u.u.u.u.u.u.u.u.u.u.u.u.u.u.u.u.u.u.u.u.u.u.u.u.u.u.u.u.u.u.u.u.u.u.u.u.u.u.u.u.u.u.u.u.u.u.u.u.",
"7 u.u.u.u.u.u.u.u.u.u.u.u.u.u.u.u.u.u.u.u.u.u.u.u.u.u.u.u.u.u.u.u.u.u.u.u.u.u.u.u.u.u.u.u.u.u.u.u.u.u.u.u.u.u.u.u.u.u.u.u.u.u.u.",
"7 u.u.u.u.u.u.u.u.u.u.u.u.u.u.u.u.u.u.u.u.u.u.u.u.u.u.u.u.u.u.u.u.u.u.u.u.u.u.u.u.u.u.u.u.u.u.u.u.u.u.u.u.u.u.u.u.u.u.u.u.u.u.u.",
"7 u.u.u.u.u.u.u.u.u.u.u.u.u.u.u.u.u.u.u.u.u.u.u.u.u.u.u.u.u.u.u.u.u.u.u.u.u.u.u.u.u.u.u.u.u.u.u.u.u.u.u.u.u.u.u.u.u.u.u.u.u.u.u.",
"7 u.u.u.u.u.u.u.u.u.u.u.u.u.u.u.u.u.u.u.u.u.u.u.u.u.u.u.u.u.u.u.u.u.u.u.u.u.u.u.u.u.u.u.u.u.u.u.u.u.u.u.u.u.u.u.u.u.u.u.u.u.u.u.",
"7 u.u.u.u.u.u.u.u.u.u.u.u.u.u.u.u.u.u.u.u.u.u.u.u.u.u.u.u.u.u.u.u.u.u.u.u.u.u.u.u.u.u.u.u.u.u.u.u.u.u.u.u.u.u.u.u.u.u.u.u.u.u.u."
};
