/* XPM */
static char *rcp02411234873182[] = {
/* columns rows colors chars-per-pixel */
"64 64 228 2 ",
"   c #496D89",
".  c #F4F5F5",
"X  c white",
"o  c #68686B",
"O  c #E1E1E2",
"+  c #FEFEFE",
"@  c #69696D",
"#  c #606064",
"$  c #DFDFE0",
"%  c #D6D6D7",
"&  c gray97",
"*  c #FDFDFE",
"=  c gray96",
"-  c #FDFDFD",
";  c gray99",
":  c gray88",
">  c #EFEFF0",
",  c #6E6E71",
"<  c #B6B6B8",
"1  c #FBFBFB",
"2  c #D3D3D4",
"3  c #ADADAF",
"4  c gray90",
"5  c #D0D0D1",
"6  c #ECECEC",
"7  c #F8F8F8",
"8  c #CACACC",
"9  c #737376",
"0  c #B8B8BA",
"q  c #CECECF",
"w  c #E6E6E6",
"e  c #9C9C9F",
"r  c #55555A",
"t  c #89898C",
"y  c #4E4E52",
"u  c #C1C1C3",
"i  c #BFBFC0",
"p  c gray91",
"a  c #505054",
"s  c #F4F4F4",
"d  c #727276",
"f  c #B7B7B8",
"g  c #818184",
"h  c #5A5A5E",
"j  c #8F8F91",
"k  c #555559",
"l  c #D5D5D6",
"z  c #E6E6E7",
"x  c #4A4A4E",
"c  c gray94",
"v  c #C5C5C7",
"b  c #545458",
"n  c #6D6D70",
"m  c #C2C2C4",
"M  c #E9E9EA",
"N  c #5C5C60",
"B  c #727275",
"V  c #B9B9BA",
"C  c #CACACB",
"Z  c #828285",
"A  c #8A8A8D",
"S  c #6B6B6F",
"D  c #F8F8F9",
"F  c #F9F9F9",
"G  c #57575B",
"H  c #717175",
"J  c #C1C1C2",
"K  c #E9E9E9",
"L  c #5B5B5F",
"P  c #B5B5B7",
"I  c #C9C9CA",
"U  c #6D6D71",
"Y  c #717174",
"T  c #4C4C51",
"R  c #949497",
"E  c #D1D1D2",
"W  c gray93",
"Q  c #4F4F53",
"!  c #6A6A6E",
"~  c #C6C6C7",
"^  c #EBEBEC",
"/  c #F6F6F6",
"(  c #707073",
")  c #CBCBCC",
"_  c #F6F6F7",
"`  c #444449",
"'  c #D2D2D3",
"]  c #9B9B9E",
"[  c #8B8B8D",
"{  c #66666A",
"}  c #858588",
"|  c #DBDBDC",
" . c #646468",
".. c #8E8E91",
"X. c #838386",
"o. c #3F3F44",
"O. c #77777A",
"+. c #7E7E81",
"@. c #C2C2C3",
"#. c #CDCDCE",
"$. c #434347",
"%. c #F4F4F5",
"&. c #8B8B8E",
"*. c #A1A1A3",
"=. c #8F8F92",
"-. c #6F6F72",
";. c #A8A8AA",
":. c #E2E2E2",
">. c #808083",
",. c #ECECED",
"<. c #6C6C6F",
"1. c #8C8C8F",
"2. c #AFAFB1",
"3. c #C0C0C1",
"4. c #FBFBFC",
"5. c #FCFCFD",
"6. c #E7E7E8",
"7. c #D8D8D9",
"8. c gray98",
"9. c #CCCCCD",
"0. c #CFCFD0",
"q. c #ABABAD",
"w. c #7D7D80",
"e. c #BABABC",
"r. c gray95",
"t. c #B9B9BB",
"y. c #E5E5E6",
"u. c #E0E0E1",
"i. c gray87",
"p. c #B7B7B9",
"a. c #F2F2F3",
"s. c #E4E4E5",
"d. c #D9D9DA",
"f. c #EDEDEE",
"g. c gray85",
"h. c #E4E4E4",
"j. c #DEDEDF",
"k. c #B8B8B9",
"l. c #7B7B7E",
"z. c #525256",
"x. c #58585C",
"c. c #929295",
"v. c #A6A6A8",
"b. c #47474B",
"n. c #CCCCCE",
"m. c #47474C",
"M. c #6B6B6E",
"N. c #505055",
"B. c #ACACAE",
"V. c #57575C",
"C. c #E1E1E1",
"Z. c #535357",
"A. c #C7C7C8",
"S. c #424246",
"D. c #68686C",
"F. c #B3B3B5",
"G. c #B4B4B6",
"H. c #AEAEB0",
"J. c #AAAAAC",
"K. c #6C6C70",
"L. c #9E9EA1",
"P. c #A9A9AB",
"I. c #49494D",
"U. c #EAEAEB",
"Y. c #9A9A9C",
"T. c #6E6E72",
"R. c #4D4D52",
"E. c #67676B",
"W. c #F1F1F2",
"Q. c #909093",
"!. c #9A9A9D",
"~. c #C3C3C5",
"^. c #A5A5A7",
"/. c #59595D",
"(. c #E3E3E4",
"). c #76767A",
"_. c #BEBEBF",
"`. c #B1B1B3",
"'. c #868689",
"]. c #97979A",
"[. c #4D4D51",
"{. c #5F5F63",
"}. c #909092",
"|. c #6F6F73",
" X c #848487",
".X c #434348",
"XX c #D4D4D5",
"oX c #56565A",
"OX c #626266",
"+X c #99999C",
"@X c #515156",
"#X c #CECED0",
"$X c #EFEFEF",
"%X c #DFDFDF",
"&X c #9D9D9F",
"*X c #BFBFC1",
"=X c #DADADB",
"-X c #515155",
";X c #EAEAEA",
":X c #E7E7E7",
">X c #FBFCFC",
",X c #A2A2A5",
"<X c #A4A4A7",
"1X c #5E5E62",
"2X c #E2E2E3",
"3X c #9D9DA0",
"4X c #919193",
"5X c #8D8D90",
"6X c gray92",
"7X c #98989A",
"8X c #9C9C9E",
"9X c #9F9FA1",
"0X c #5D5D60",
"qX c #616164",
"wX c #707074",
"eX c #7D7D81",
"rX c #7A7A7E",
"tX c #7C7C7F",
"yX c #929294",
"uX c #EEEEEF",
"iX c #79797C",
"pX c #A0A0A2",
"aX c #69696C",
"sX c #C3C3C4",
"dX c #98989B",
"fX c #F5F5F6",
"gX c #CBCBCD",
"hX c #87878A",
/* pixels */
"  . X X o O X + X X X X X X X X X X X X X X X X X X X X X X X X X X X X X X X X X X X X X X X X X X X X X X X X X X X X X X X X ",
"  . X X o O X + X X X X X X X X X X X X X X X X X X X X X X X X X X X X X X X X X X X X X X X X X X X X X X X X X X X X X X X X ",
"  . X X o O X + X X X X X X X X X X X X X X X X X X X X X X X X X X X X X X X X X X X X X X X X X X X X X X X X X X X X X X X X ",
"  . X X o O X + X X X X X X X X X X X X X X X X X X X X X X X X X X X X X X X X X X X X X X X X X X X X X X X X X X X X X X X X ",
"  . X X o O X + X X X X X X X X X X X X X X X X X X X X X X X X X X X X X X X X X X X X X X X X X X X X X X X X X X X X X X X X ",
"  . X X o O X + X X X X X X X X X X X X X X X X X X X X X X X X X X X X X X X X X X X X X X X X X X X X X X X X X X X X X X X X ",
"  . X X o O X + X X X X X X X X X X X X X X X X X X X X X X X X X X X X X X X X X X X X X X X X X X X X X X X X X X X X X X X X ",
"  . X X @ O X + X X X X X X X X X X X X X X X X X X X X X X X X X X X X X X X X X X X X X X X X X X X X X X X X X X X X X X X X ",
"  . X X # $ X + X X X X X X X X X X X X X X X X X X X X X X X X X X X X X X X X X X X X X X X X X X X X X X X X X X X X X X X X ",
"  . X X % & X X X X X X X X X X X X X X X X X X X X X X X X X X * + X X X X X X X X X X X X X X X X X X X X X X X X X X X X X X ",
"  = X + X X X X X X X X X X X X X X X X X X X X X X X X X X X + X X + X X X X X X X X X X X X X X X X X X X X X X X X X X X X X ",
"  = X + - X X X X X X X X X X X X X - ; + X X - + X X - X X + X : > X + - ; + X X X X X X X X X X X X X X X X X X X X X X X X X ",
"  = X + X X X X X X X X X X X X X - X X X - X X X + X X X X ; X , < X 1 X X X - X X X X X X X X X X X X X X X X X X X X X X X X ",
"  = X + X X X X X X X X X X X X + X 2 3 4 X X 5 6 X 7 8 ; X ; X 9 0 X X q 3 w X - X X X X X X X X X X X X X X X X X X X X X X X ",
"  = X + X X X X X X X X X X X - X e r t y u X # i X p a s X ; X d f X g h j k l X - X X X X X X X X X X X X X X X X X X X X X X ",
"  = X + X X X X X X X X X X + X z x c X v b X n m X M N = X ; X B V X C X X Z A X ; X X X X X X X X X X X X X X X X X X X X X X ",
"  = X + X X X X X X X X X X - X i S X D F G s H J X K L s X ; X 9 P X I U Y T R X ; X X X X X X X X X X X X X X X X X X X X X X ",
"  = X + X X X X X X X X X X - X E G X X W Q X ! ~ X ^ k / X ; X ( ) _ ` ' X ] [ X ; X X X X X X X X X X X X X X X X X X X X X X ",
"  = X + X X X X X X X X X X X + X { } |  .[ X ..N % X.o.& X 1 X O.+.M Q @.#.$.A X ; X X X X X X X X X X X X X X X X X X X X X X ",
"  = X + X X X X X X X X X X X + X %.&., *.X X 1 =.-.0 ;.& X - X :.>.,.5 <.1.2.3.X - X X X X X X X X X X X X X X X X X X X X X X ",
"  = X + X X X X X X X X X X X X + X X X X X + X X X X X X X X + X X X X X X X X + X X X X X X X X X X X X X X X X X X X X X X X ",
"  = X + X X X X X X X X X X X X X + ; - ; X X + ; - - - X X X X + 4.X - ; - ; - X X X X X X X X X X X X X X X X X X X X X X X X ",
"  = X + X X X X X X X X X X X X X X X X X X X X X X X X X X X X X X X X X X X X X X X X + * X X X X X X X X X X X X X X X X X X ",
"  = X + X X X X X X X X X X X X X X X X X X X X X X X X X X X X X X X X X - - X X X X + X X + X X X X X X X X X X X X X X X X X ",
"  = X + X X + - - X X X + 5.- X X + + - + + + - + X + 5.+ X X X + 5.- X - X X ; X - - X 6.7.X + + 5.+ X X X + 5.+ X X X X X X X ",
"  = X + X - X X X - X - X X X - + X X X X X X X X ; X X X - X - X X X 8.X 9.0.X X X X X q.w.X 1 X X X - X - X X X - X X X X X X ",
"  = X X - X = e.2 X + X r.t.% X X y.w 5 u.K z q i.X ^ p.$ X ; X r.t.% X a. .o s.> : d.l f.g.X X h.p.z X ; X j.k.f.X - X X X X X ",
"  = X - X u.b l.N X.X 7.z.w.x.c.X v.b.@ n.;.m.M.q d.N.g b B.X % z.w.V.R C.Z.b A.#.S.D.p.F.H X G.a g N.H.X J.k g z.5 X - X X X X ",
"  = X ; X K.L.X & c.X { P.X & I.U.2. .X X Y.T.X X # C X ^ R.+ E.P.X W.Q.X !.] X ~.z.X X B.+.X x % X l ^./ b r.X J # X + X X X X ",
"  = X X - /.(.X ; X F G 6 ; X )._.`.'.X X ].c.X f.[.T.U d [.l {.U.X + X X =.}.X i |.X X B. Xs.N X 7 X X 5 .X)., ! /.8.X + X X X ",
"  = X + X /.XXX X (.8.oXj.X X OX#.`.X.X X +X..X / @X#X$Xp O 1 oXj.X X %XX ..&XX *XU X X 3  Xr.Q X X X U.=X-X;XM :X(.X X X X X X ",
"  = X >XX ,X/.$ <XoXX +X1X2X3XZ.X 3Xl.X X 4X'.X X 5XB 6XJ.T.X 7X{.2X8XL X 9X0Xs *XqXX X ;.wXX U eX6.rXtXX D.yXuX1.5XX - X X X X ",
"  = X + + X v.@ iXC.X X pXaXl.y.X sX`.X X _.p.X + X dX@ iX| X X pXaXtXw X fX} J.C.pXX X gXq.X / A D.5X& X r. X@ hXuXX + X X X X ",
"  = X + X + X X X X - X X X X X ; X X + + X X + X X X X X X + X X X X X - X X X X X + + X X - X X X X X - X X X X X + X X X X X ",
"  = X + X X ; - ; - X X ; - ; + X + - X X - - X X X ; - ; - X X ; - ; + X + ; - + - X X + - X + ; + ; + X + ; + ; + X X X X X X ",
"  = X + X X X X X X X X X X X X X X X X X X X X X X X X X X X X X X X X X X X X X X X X X X X X X X X X X X X X X X X X X X X X ",
"  = X + X X X X X X X X X X X X X X X X X X X X X X X X X X X X X X X X X X X X X X X X X X X X X X X X X X X X X X X X X X X X ",
"  = X + X X X X X X X X X X X X X X X X X X X X X X X X X X X X X X X X X X X X X X X X X X X X X X X X X X X X X X X X X X X X ",
"  = X + X X X X X X X X X X X X X X X X X X X X X X X X X X X X X X X X X X X X X X X X X X X X X X X X X X X X X X X X X X X X ",
"  = X + X X X X X X X X X X X X X X X X X X X X X X X X X X X X X X X X X X X X X X X X X X X X X X X X X X X X X X X X X X X X ",
"  = X + X X X X X X X X X X X X X X X X X X X X X X X X X X X X X X X X X X X X X X X X X X X X X X X X X X X X X X X X X X X X ",
"  = X + X X X X X X X X X X X X X X X X X X X X X X X X X X X X X X X X X X X X X X X X X X X X X X X X X X X X X X X X X X X X ",
"  = X + X X X X X X X X X X X X X X X X X X X X X X X X X X X X X X X X X X X X X X X X X X X X X X X X X X X X X X X X X X X X ",
"  = X + X X X X X X X X X X X X X X X X X X X X X X X X X X X X X X X X X X X X X X X X X X X X X X X X X X X X X X X X X X X X ",
"  = X + X X X X X X X X X X X X X X X X X X X X X X X X X X X X X X X X X X X X X X X X X X X X X X X X X X X X X X X X X X X X ",
"  = X + X X X X X X X X X X X X X X X X X X X X X X X X X X X X X X X X X X X X X X X X X X X X X X X X X X X X X X X X X X X X ",
"  = X + X X X X X X X X X X X X X X X X X X X X X X X X X X X X X X X X X X X X X X X X X X X X X X X X X X X X X X X X X X X X ",
"  = X + X X X X X X X X X X X X X X X X X X X X X X X X X X X X X X X X X X X X X X X X X X X X X X X X X X X X X X X X X X X X ",
"  = X + X X X X X X X X X X X X X X X X X X X X X X X X X X X X X X X X X X X X X X X X X X X X X X X X X X X X X X X X X X X X ",
"  = X + X X X X X X X X X X X X X X X X X X X X X X X X X X X X X X X X X X X X X X X X X X X X X X X X X X X X X X X X X X X X ",
"  = X + X X X X X X X X X X X X X X X X X X X X X X X X X X X X X X X X X X X X X X X X X X X X X X X X X X X X X X X X X X X X ",
"  = X + X X X X X X X X X X X X X X X X X X X X X X X X X X X X X X X X X X X X X X X X X X X X X X X X X X X X X X X X X X X X ",
"  = X + X X X X X X X X X X X X X X X X X X X X X X X X X X X X X X X X X X X X X X X X X X X X X X X X X X X X X X X X X X X X ",
"  = X + X X X X X X X X X X X X X X X X X X X X X X X X X X X X X X X X X X X X X X X X X X X X X X X X X X X X X X X X X X X X ",
"  = X + X X X X X X X X X X X X X X X X X X X X X X X X X X X X X X X X X X X X X X X X X X X X X X X X X X X X X X X X X X X X ",
"  = X + X X X X X X X X X X X X X X X X X X X X X X X X X X X X X X X X X X X X X X X X X X X X X X X X X X X X X X X X X X X X ",
"  = X + X X X X X X X X X X X X X X X X X X X X X X X X X X X X X X X X X X X X X X X X X X X X X X X X X X X X X X X X X X X X ",
"  = X + X X X X X X X X X X X X X X X X X X X X X X X X X X X X X X X X X X X X X X X X X X X X X X X X X X X X X X X X X X X X ",
"  = X + X X X X X X X X X X X X X X X X X X X X X X X X X X X X X X X X X X X X X X X X X X X X X X X X X X X X X X X X X X X X ",
"  = X + X X X X X X X X X X X X X X X X X X X X X X X X X X X X X X X X X X X X X X X X X X X X X X X X X X X X X X X X X X X X ",
"  = X + X X X X X X X X X X X X X X X X X X X X X X X X X X X X X X X X X X X X X X X X X X X X X X X X X X X X X X X X X X X X ",
"  = X + X X X X X X X X X X X X X X X X X X X X X X X X X X X X X X X X X X X X X X X X X X X X X X X X X X X X X X X X X X X X ",
"  = X + X X X X X X X X X X X X X X X X X X X X X X X X X X X X X X X X X X X X X X X X X X X X X X X X X X X X X X X X X X X X ",
"  = X + X X X X X X X X X X X X X X X X X X X X X X X X X X X X X X X X X X X X X X X X X X X X X X X X X X X X X X X X X X X X "
};
