/* XPM */
static char *rcp02412812874976[] = {
/* columns rows colors chars-per-pixel */
"64 64 218 2 ",
"   c white",
".  c #FEFEFE",
"X  c #F8F8F8",
"o  c #EAEAEB",
"O  c #FDFDFD",
"+  c #C6C6C8",
"@  c #57575B",
"#  c #C5C5C6",
"$  c #535357",
"%  c #F9F9F9",
"&  c #C5C5C7",
"*  c #545458",
"=  c #D5D5D6",
"-  c #5E5E62",
";  c #525256",
":  c #656569",
">  c #E0E0E1",
",  c #EEEEEE",
"<  c #47474B",
"1  c #ACACAE",
"2  c #98989B",
"3  c #4F4F54",
"4  c #FBFBFB",
"5  c #505055",
"6  c #A0A0A3",
"7  c #606064",
"8  c #EBEBEC",
"9  c gray97",
"0  c #45454A",
"q  c #BABABC",
"w  c gray99",
"e  c #505054",
"r  c #919194",
"t  c #3C3C41",
"y  c #5F5F63",
"u  c #59595D",
"i  c #5C5C60",
"p  c #C0C0C1",
"a  c #FCFCFD",
"s  c #C4C4C5",
"d  c #555559",
"f  c #9C9C9E",
"g  c #68686C",
"h  c #F4F4F4",
"j  c #CCCCCD",
"k  c #3A3A3F",
"l  c #DFDFE0",
"z  c gray93",
"x  c #404044",
"c  c #A7A7A9",
"v  c gray96",
"b  c #B6B6B8",
"n  c #4D4D52",
"m  c gray92",
"M  c #7C7C80",
"N  c #6C6C70",
"B  c #D2D2D3",
"V  c #5B5B5F",
"C  c #56565A",
"Z  c #58585C",
"A  c #BEBEBF",
"S  c #FDFDFE",
"D  c #FEFEFF",
"F  c #BCBCBE",
"G  c #DBDBDC",
"H  c #F3F3F4",
"J  c #F1F1F1",
"K  c #F7F7F8",
"L  c #F4F4F5",
"P  c #F2F2F3",
"I  c gray98",
"U  c #F1F1F2",
"Y  c #969698",
"T  c #F3F3F3",
"R  c #848487",
"E  c #4D4D51",
"W  c #4E4E52",
"Q  c #808083",
"!  c #727275",
"~  c #4F4F53",
"^  c #4C4C51",
"/  c #949496",
"(  c #838386",
")  c #7B7B7E",
"_  c #8C8C8F",
"`  c #5D5D61",
"'  c #858588",
"]  c #434348",
"[  c #737377",
"{  c #4E4E53",
"}  c #979799",
"|  c #757579",
" . c #8F8F91",
".. c #89898C",
"X. c #37373C",
"o. c #434347",
"O. c #8A8A8D",
"+. c #D7D7D8",
"@. c #525257",
"#. c #C3C3C4",
"$. c gray87",
"%. c #CDCDCE",
"&. c #88888A",
"*. c #8C8C8E",
"=. c #515155",
"-. c #ECECEC",
";. c #EFEFEF",
":. c #909093",
">. c #6A6A6D",
",. c #69696C",
"<. c #F5F5F6",
"1. c #E1E1E2",
"2. c #444448",
"3. c #767679",
"4. c #47474C",
"5. c #D8D8D9",
"6. c #E6E6E7",
"7. c #323237",
"8. c #EAEAEA",
"9. c #7A7A7E",
"0. c #747478",
"q. c #ECECED",
"w. c #ADADAF",
"e. c #707073",
"r. c #646467",
"t. c #E4E4E5",
"y. c #4A4A4F",
"u. c #AAAAAC",
"i. c #A2A2A4",
"p. c #C2C2C3",
"a. c #414146",
"s. c gray89",
"d. c #46464A",
"f. c #C9C9CA",
"g. c #7E7E82",
"h. c #F6F6F6",
"j. c #CFCFD1",
"k. c #E9E9EA",
"l. c #3F3F43",
"z. c #EDEDEE",
"x. c #B8B8BA",
"c. c #717174",
"v. c #98989A",
"b. c #E2E2E3",
"n. c gray94",
"m. c #C9C9CB",
"M. c #8D8D8F",
"N. c #3D3D42",
"B. c gray91",
"V. c #E9E9E9",
"C. c #66666A",
"Z. c #B4B4B6",
"A. c #D9D9DA",
"S. c #EFEFF0",
"D. c #515156",
"F. c #A2A2A5",
"G. c #CACACB",
"H. c #E3E3E4",
"J. c #4B4B50",
"K. c #D1D1D2",
"L. c #4A4A4E",
"P. c #747477",
"I. c #E2E2E2",
"U. c #4B4B4F",
"Y. c #3D3D41",
"T. c #5F5F62",
"R. c #DDDDDE",
"E. c #49494D",
"W. c #A3A3A5",
"Q. c #38383D",
"!. c #646468",
"~. c #5A5A5E",
"^. c #E8E8E9",
"/. c #49494E",
"(. c #DCDCDD",
"). c #48484C",
"_. c #C6C6C7",
"`. c #E6E6E6",
"'. c #AEAEAF",
"]. c #727276",
"[. c #99999B",
"{. c #4C4C50",
"}. c gray95",
"|. c #444449",
" X c #E7E7E8",
".X c #3E3E43",
"XX c #636366",
"oX c #B0B0B2",
"OX c #B7B7B9",
"+X c #454549",
"@X c #9E9EA0",
"#X c #939396",
"$X c #B1B1B3",
"%X c #68686B",
"&X c #929295",
"*X c #404045",
"=X c #88888B",
"-X c #D4D4D5",
";X c #828285",
":X c #DADADB",
">X c #67676B",
",X c #414145",
"<X c #25252A",
"1X c #CECECF",
"2X c #A0A0A2",
"3X c #9D9D9F",
"4X c #8D8D90",
"5X c #AFAFB1",
"6X c #B4B4B5",
"7X c #97979A",
"8X c #919193",
"9X c #E5E5E6",
"0X c #6A6A6E",
"qX c #868689",
"wX c #BEBEC0",
"eX c #A8A8AA",
"rX c #D6D6D7",
"tX c #7A7A7D",
/* pixels */
"                                                                                                                                ",
"                                                                                                                                ",
"                                                                                                                                ",
"                                                                                                                                ",
"                                                                                                                                ",
"                                                                                                                                ",
"                                                                                                                                ",
"                                                                                                                                ",
"                                                                                                                                ",
"                                                                                                                                ",
"                                                                                                                                ",
"                                                                                                                                ",
"                                                      .                                                                         ",
"                                                                                                                                ",
"                                                    X o         .                                                               ",
"                                                O   + @     O .   O O                                                           ",
"                                                O   # $   O     %     O                                                         ",
"                                                O   & *     = - ; : >   O                                                       ",
"                                                O   # $   , < 1 % 2 3 4   .                                                     ",
"                                                O   # 5   6 7   8 9 0 q   w                                                     ",
"                                                O   & e   r t y u i e p   a                                                     ",
"                                                O   s d   f g   .   h 4                                                         ",
"                                                O   j k l z x c v b n m   .                                                     ",
"                                                    O M N   B V C Z A   S                                                       ",
"                                                          O     h     .                                                         ",
"                                                    D O     O .   . O                                                           ",
"                                                                .                                                               ",
"                                                                                                                                ",
"                                                                                a .                                             ",
"          . .           . .       .     .   .   .       . .           . .     O     O       .         .       .     .   .       ",
"      . O     O .   . O     w                 .     . O     w     . O     w O   F G   . O .     O                     .         ",
"    .     h H     O     J K       v   . H . L   P I     J X     .     U 9     O d Y   4     z     . O T .     h w   H   v %     ",
"  .     R E W Q I   h ! ~ ^ /     ( ) @ _ z ` ' ] G   [ { n }     9 | W n  .  ..X.o.O.  +.u ; @.#.  $.C v     i %.. 7 &.] s   w ",
"  w   *.=.-.;.u :.  >.,.<.1.2.6   3.4.5.K 6.7./ 8.  9.0.  q.^ w.  e.r.h t.y.u.  7 i.  v E 1   p.a.;.s.d.h     W f.  t g.8.h.    ",
".   w d.j.    X , k.l.z.    x.3   c.v.    b.< 9   n.] m.1., M.- % N.B.    h V.  C.c   Z.3 o A.S.D.F.S.4.h     =.G.  d.b.        ",
".   z < H.  %     B J.X w   K.L.  P.v.    I.U.,   1.Y.` y T.V r R.E.L   %       C.W.  c Q.!.- 7 ~.F ^.E.T     ; G.  /.(.  O     ",
"D     )._.    k.5.J N.`.    '.*   ].[.    b.{.n.  }.|. X    . <.T .X>     1.5.  XXoX  OX$       T   1.+XI     d.%.  U.R.  O     ",
"  w   @X|.K.= < #X  ) C (._.t $X  %X&X    > *Xn.    =X@.+.-X~ @X  ;X; :Xm.t w.  e.>XI.. ; Q H.Z.,XG   < R I.&X<X1X  .XG   O     ",
"        2XZ Z 3X    . 4X@ ~.5X    v.6X    8.) L       #XZ u 7X.     8X@ u w.    9X0XqX  o ].u - wX    = i d eX..rX  tX6.  .     ",
"                  .           . .     .                         .           . .       O           . .                           ",
"        w     w     . w   . w     . .       O         w     w     . w   . w     . w .   . w   . O     O .   O O .   O           ",
"                                                                                                                                ",
"                                                                                                                                ",
"                                                                                                                                ",
"                                                                                                                                ",
"                                                                                                                                ",
"                                                                                                                                ",
"                                                                                                                                ",
"                                                                                                                                ",
"                                                                                                                                ",
"                                                                                                                                ",
"                                                                                                                                ",
"                                                                                                                                ",
"                                                                                                                                ",
"                                                                                                                                ",
"                                                                                                                                ",
"                                                                                                                                ",
"                                                                                                                                ",
"                                                                                                                                ",
"                                                                                                                                ",
"                                                                                                                                ",
"                                                                                                                                ",
"                                                                                                                                ",
"                                                                                                                                "
};
