/* XPM */
static char *rcp02410648854864[] = {
/* columns rows colors chars-per-pixel */
"64 64 165 2 ",
"   c #D30400",
".  c #D50D00",
"X  c #D51201",
"o  c #D81202",
"O  c #D61802",
"+  c #D91B05",
"@  c #D6160B",
"#  c #D61B0A",
"$  c #D82006",
"%  c #D7210E",
"&  c #D9250F",
"*  c #D72314",
"=  c #D92714",
"-  c #D92A14",
";  c #D6281D",
":  c #D92C1B",
">  c #DB311D",
",  c #D72F24",
"<  c #D92E20",
"1  c #DB3324",
"2  c #DD3A27",
"3  c #D7352A",
"4  c #D9362D",
"5  c #DC3C2B",
"6  c #DB3D33",
"7  c #DB412D",
"8  c #DB4233",
"9  c #DD463F",
"0  c #DB493B",
"q  c #E14A3B",
"w  c #DA4F43",
"e  c #DD5043",
"r  c #DD594A",
"t  c #DD5D52",
"y  c #E05751",
"u  c #DE635D",
"i  c #E66559",
"p  c #E7695D",
"a  c #DF6C67",
"s  c #DE6D69",
"d  c #DE7772",
"f  c #DF7E77",
"g  c #DD7E78",
"h  c #E36C62",
"j  c #E86F66",
"k  c #EA7264",
"l  c #E4726B",
"z  c #E9766C",
"x  c #E27771",
"c  c #EA7770",
"v  c #E07875",
"b  c #EA7975",
"n  c #E77F7C",
"m  c #EC7C78",
"M  c #DE847C",
"N  c #EC837D",
"B  c #E28381",
"V  c #EB8785",
"C  c #ED8B84",
"Z  c #E28A88",
"A  c #EE8F89",
"S  c #EB9791",
"D  c #E49C9B",
"F  c #EF9E9B",
"G  c #F29A98",
"H  c #F3A29E",
"J  c #E3A2A0",
"K  c #E5ACAC",
"L  c #F5A7A5",
"P  c #F4ABA5",
"I  c #F4A5A9",
"U  c #F3ABAB",
"Y  c #E3AFB1",
"T  c #E4B2B5",
"R  c #E8B1B3",
"E  c #E5B6B9",
"W  c #EEB7BA",
"Q  c #E6BBBD",
"!  c #EDB9BD",
"~  c #F6B2B1",
"^  c #F8B6B7",
"/  c #F6B4B8",
"(  c #F9BBBC",
")  c #E7BBC1",
"_  c #EABEC3",
"`  c #FABFC3",
"'  c #E7C0C5",
"]  c #EBC1C5",
"[  c #ECC4CB",
"{  c #E7C9CE",
"}  c #E9C9CF",
"|  c #F4C3C7",
" . c #F2C6CC",
".. c #F9C5C9",
"X. c #F2C9CE",
"o. c #FCC9CD",
"O. c #E7CCD4",
"+. c #ECCCD3",
"@. c #F2C7D0",
"#. c #F5CBD2",
"$. c #FACED5",
"%. c #FACFD8",
"&. c #EED0D6",
"*. c #EED1D9",
"=. c #F5D0D7",
"-. c #FED0D3",
";. c #FBD1D5",
":. c #FBD0D7",
">. c #FDD0D5",
",. c #FDD0D7",
"<. c #FED1D6",
"1. c #FFD2D7",
"2. c #FED1D4",
"3. c #FBD1D6",
"4. c #F2D3DB",
"5. c #F9D1D9",
"6. c #FBD2DA",
"7. c #FCD1D8",
"8. c #FED1D8",
"9. c #FDD2D9",
"0. c #FCD3D9",
"q. c #FFD2D9",
"w. c #FDD2DB",
"e. c #FED3DA",
"r. c #FFD3DA",
"t. c #FDD4D8",
"y. c #FED4D8",
"u. c #FDD4DA",
"i. c #FFD4DB",
"p. c #FED3DC",
"a. c #FFD2DC",
"s. c #FBD6DD",
"d. c #FDD4DC",
"f. c #FFD4DD",
"g. c #FED5DD",
"h. c #FFD6DC",
"j. c #FFD6DE",
"k. c #FFD7DF",
"l. c #FED3DA",
"z. c #FBD8DE",
"x. c #FFD8DD",
"c. c #F7D8E0",
"v. c #F9DAE2",
"b. c #FFD8E0",
"n. c #FED9E1",
"m. c #FFDAE1",
"M. c #FFDAE2",
"N. c #FDDCE3",
"B. c #FFDCE3",
"V. c #FFDCE2",
"C. c #FFDBE5",
"Z. c #FCDDE5",
"A. c #FDDCE5",
"S. c #FEDDE4",
"D. c #FFDDE4",
"F. c #FFDEE5",
"G. c #FEDFE5",
"H. c #FEDDE6",
"J. c #FFDFE7",
"K. c #FBDAE3",
"L. c #FFDFEA",
"P. c #FDE0E5",
"I. c #FFE0E6",
"U. c #FFE0E8",
"Y. c #FFE1E9",
/* pixels */
"e.e.e.e.e.e.e.e.e.e.e.e.e.e.e.e.e.e.e.e.e.e.e.e.e.e.e.e.e.e.e.e.e.e.e.e.e.e.e.e.e.e.e.e.e.e.e.e.e.e.e.e.e.e.e.e.e.e.e.e.e.e.e.e.",
"e.e.e.e.e.e.e.e.e.e.e.e.e.e.e.e.e.e.e.e.e.e.e.e.e.e.e.e.e.e.e.e.e.e.e.e.e.e.e.e.e.e.e.e.e.e.e.e.e.e.e.e.e.e.e.e.e.e.e.e.e.e.e.e.",
"e.e.e.e.e.e.e.e.e.e.e.e.e.e.e.e.e.e.e.e.e.e.e.e.e.e.e.e.e.e.e.e.e.e.e.e.e.e.e.e.e.e.e.e.e.e.e.e.e.e.e.e.e.e.e.e.e.e.e.e.e.e.e.e.",
"e.e.e.e.e.e.e.e.e.e.e.e.e.e.e.e.e.e.e.e.e.e.e.e.e.e.e.e.e.e.e.e.e.e.e.e.e.e.e.e.e.e.e.e.e.e.e.e.e.e.e.e.e.e.e.e.e.e.e.e.e.e.e.e.",
"e.e.e.e.e.e.e.e.e.e.e.e.e.e.e.e.e.e.e.e.e.e.e.e.e.e.e.e.e.e.e.e.e.e.e.e.e.e.e.e.e.e.e.e.e.e.e.e.e.e.e.e.e.e.e.e.e.e.e.e.e.e.e.e.",
"e.e.e.e.e.e.e.e.e.e.e.e.e.e.e.e.e.e.e.e.e.e.e.e.e.e.e.e.e.e.e.e.e.e.e.e.e.e.e.e.e.e.e.e.e.e.e.e.e.e.e.e.e.e.e.e.e.e.e.e.e.e.e.e.",
"e.e.e.e.e.e.e.e.e.e.e.e.e.e.e.e.e.e.e.e.e.e.e.e.e.e.e.e.e.e.e.e.e.e.e.e.e.e.e.e.e.e.e.e.e.e.e.e.e.e.e.e.e.e.e.e.e.e.e.e.e.e.e.e.",
"e.e.e.e.e.e.e.e.e.e.e.e.e.e.e.e.e.e.e.e.e.e.e.e.e.e.e.e.e.e.e.e.e.e.e.e.e.e.e.e.e.e.e.e.e.e.e.e.e.e.e.e.e.e.e.e.e.e.e.e.e.e.e.e.",
"e.e.e.e.e.e.e.p.p.e.e.e.e.>.>.f.n.B.C.C.n.f.e.;.e.e.e.e.e.e.e.e.e.e.e.p.e.y.e.e.>.>.e.f.n.n.n.f.e.>.>.p.y.e.e.p.e.e.e.e.e.e.e.e.",
"e.e.e.e.e.e.e.e.e.e.e.$.y.Y.J.o.^ I L U / ..n.Y.f.$.e.e.e.e.e.e.e.e.p.e.e.y.$.e.J.Y.x.o.` ^ ( o.f.Y.B.e.>.e.e.e.e.y.e.e.e.e.e.e.",
"e.e.e.e.e.e.e.f.e.e.e.J.e.A q = X . . . . % 6 b ` L.y.>.e.e.p.e.e.e.e.e.>.y.Y.e.H p 5 - $ O @ & 2 i P B.n.>.e.y.p.e.e.e.e.e.e.e.",
"e.e.y.e.e.e.e.e.e.e.J.G >   . X . O X . . .     @ j >.B.>.y.e.e.p.y.e.$.J.y.N > .     X X X X . .   . q ~ Y.e.e.e.e.e.y.e.e.e.e.",
"e.e.e.e.y.e.e.e.e.B.k . . X X X . . . . . X X O .   > U Y.>.e.y.y.e.>.Y.I 1   . . o X X . X X O . @ X   X N J.e.e.e.e.p.e.e.e.e.",
"e.e.e.e.e.e.e.e.J.i   O . . . X X . X . . . . . . @ . X A Y.;.e.e.e.J.m .   X . . . . X . . . . . X . X X   h B.e.e.e.e.y.e.e.e.",
"e.y.e.e.e.e.>.Y.c   X X X X . . . . . . . X . . . . . X   N I.$.e.J.p   . X . . . . . . . . . . . . . . X X   z I.>.e.e.e.e.y.e.",
"e.y.e.y.e.$.J.H . X . . X X . . X . . . X X . X . . . . .   V J.J.p   X . . . . . X X . . . . . . . . X . X X . F J.$.f.e.e.y.e.",
"e.y.e.y.e.f.o.= . O X . . . . . X . . . . . X X . . . . . .   I V   X . . . . . . . X . . . . X . . . . . . X . < $.6.e.e.e.y.e.",
"e.e.e.e.-.Y.z   @ X X . . . X X X . . X X X X . X . . . . . . @ . . . . . . . . . . . . . . . . . . X . . . X X   N J.$.e.e.e.e.",
"e.e.e.y.e.>.: . X . . . . . . X . X . X . X X . X O . . . . . . . .         . . . . . . X . . . . . . . . . . X . 2 6.e.e.e.e.e.",
"f.e.e.>.B.L . X X . . X . . . X . . . . . . . X X X . . . X . . . .   .     . . . . . . X . X . . . . . . . . X X . U z.;.e.e.e.",
"e.e.e.>.Y.z   @ X X X X . . . . . . . . . . . X X . . . . X . . . . . . . . . . . . . . X X . . X X . . . . . . X   n K.$.e.e.e.",
"e.e.e.>.B.e . . X X . . . . . . . . . . . X . . . . X o . . . . . . . . . X . . . . . . . . . . . . X . X . . . .   y c.$.e.y.e.",
"e.e.e.e.e.1 X X X . . . . . . . . . . X . X . X . . . X . X X . . . . . . . . . . . . . X . . . X . . X X . . X X   6 =.$.e.e.e.",
"e.e.e.f.o.= X X X . X . X . . . X X . . . O . X . . . X X . . X . . . . . . X X X . X . . . . . . . X X X . . . . . :  .$.e.e.e.",
"e.e.e.f.| % X O X . . X . . . . . X . . . X X X X X . . . . . . X X . . X . X . X . X . X X . . . . . . . . X . . . # _ 6.e.e.e.",
"e.e.e.f...& X X X . . . X . . X . . . . . X . X . . X X X . . X X . . . . X . X X X X X X . . . . . . . . . X X . . # W $.;.e.e.",
"e.e.e.f.#.: X . X . . . . . . . X . . . . . . O X X X X X . X X X . X X . . . X X . . . . X X . . . . . . X . . X . # ! $.;.e.y.",
"e.e.e.>.s.7 . O X . . . . . . . . . . . . . X X X X O X X X . . . X X X X X . X X X . . . . . . . . . . . . X . X . * ] #.;.e.e.",
"e.e.e.$.J.i . @ X X X X X . . . . . . . . . X . . X O X X X X X . X O . . . X X . X X X X X . . . . . X . . X X X   6 +.#.;.e.e.",
"e.e.e.-.K.S . O X X . X . . . . . . . . X . X . X X O X X X . . X . X . . . O . . . . X . . X X . . . . X X . X X   l 4.X.;.e.e.",
"e.e.y.e.6. .- O X X X X X . . X . . . . . X X X X X X O . O X . X . . O X X X X X X . X . . . X X . . . . . X . X # R #.#.;.e.e.",
"e.y.e.e.$.K.l . @ . X . . . . . . . X . . . . X . X X . X X X . X X X X X X O O X . O X . . . . . . . . . X X X   u +.X.$.e.e.e.",
"e.e.e.e.e.6.| = X X X X X . . . . . X X . X X X . . X X X X X X . X O X X O X X O X . X . . X . . . . . . . X . * Q } #.$.e.y.e.",
"e.e.e.y.e.$.4.S . . X . X X . . . . . . . . X X X . X X X . X X X . X X X o . X O X . X . . . . . . . X . X X   Z +.[ #.$.e.e.e.",
"e.e.y.y.e.e.#.4.h   X X . . X X . . X . . X . X X . X O X X X O X X X X X . X X X . X . . . . X . . . . X X   u O.] X.$.e.>.y.e.",
"e.e.y.e.e.e.$.X.4.r   @ X . . X . . . . . . O . . X X X . X O O . . X X X X . . . . . X . . . . . . . . X   9 { ] X.#.$.e.e.e.e.",
"y.e.e.p.e.e.e.$.#.+.0 . X . . . . . X . . . . X . X X . X . X X X X X X X X . X . . . . . . . . . . . X   4 ] ] [ #.$.e.e.e.p.e.",
"p.e.e.e.y.e.e.6.#.#.[ 8 . O . X . . X X . . . . . . . . X X X X X . . X X . . . . . . . . X . . . . X   , ) { ] X.#.;.e.e.e.e.e.",
"e.y.e.e.e.e.e.e.$.#.#.[ 5 . @ . O . X X . . . . . . X . X . . X . . . . . . . . . . . . . . . . . X   ; E { ] X.#.;.e.e.e.e.e.e.",
"e.e.e.e.e.e.e.e.e.$.X.#.[ 8   X X X X . . . . . . . . X . X . . . . . . . . . . . . . . . X . . X   : T { ] X.#.;.e.e.e.e.e.f.e.",
"e.e.e.e.e.e.e.e.e.e.$.#.#.[ 8 . @ X X X . . . X . X . . . . . . . . . . . . . . X . . . . X X X   : T { ] X.#.$.e.e.e.e.e.e.e.e.",
"e.e.e.e.e.e.e.e.e.e.e.$.#.#.} e   . . X X X . . . . . . . . . . . . . . . . . . . . . . . X X . < E { ] X.#.$.>.e.e.e.e.e.e.e.e.",
"e.e.e.e.e.e.e.e.e.e.e.e.$.#.X.+.t   . X . X . . . . . . X . . . . . . . . . . . . . X . . O   7 Q { ] X.#.$.e.e.e.e.e.e.e.e.e.e.",
"e.e.e.e.e.e.e.e.e.e.e.e.;.$.#. .&.a   X X X X X . . . . X . . . . . . . . . . X . . X X X   r ' [ [ X.#.$.e.e.e.e.e.e.e.e.e.e.e.",
"e.e.e.e.e.e.e.e.e.e.e.y.e.e.$.#.X.*.B . . @ X . . . . . . . . . . . . . . . X X . . + . X f } ] [ X.#.$.e.e.e.p.e.e.e.e.e.e.e.e.",
"e.e.e.e.e.e.e.e.y.e.e.e.e.e.>.$.#.X.*.D # . O X . . . . . . . . . . . . . X . X . X . : J O._ [ X.#.$.e.e.y.e.e.e.e.e.e.e.e.e.e.",
"e.e.e.e.e.e.e.e.e.e.e.e.e.e.e.e.$.#. .&.R 1   @ . . . . . . X . . X . . X X o O .   w ) { _ [ X.#.$.e.e.e.e.e.y.e.e.e.e.e.e.e.e.",
"e.e.e.e.e.e.e.e.e.e.e.e.e.e.y.e.e.;.$. .+.[ e   X X . . . . X . . . . . X . O . . d O.] ] X.#.#.$.e.e.y.e.e.e.e.e.e.e.e.e.e.e.e.",
"e.e.e.e.e.e.e.e.e.e.e.e.e.e.e.e.e.e.;.$.X.X.+.x . . @ . X . . X X X X O X O   : D O._ ] X.#.$.;.e.e.e.e.e.e.e.e.e.e.e.e.e.e.e.e.",
"e.e.e.e.e.e.e.e.e.e.e.e.e.e.e.e.e.e.e.;.$.#.X.4.D *   X X . . X . X X O X   w Q } _ [  .#.$.;.e.e.e.e.e.e.e.e.e.e.e.e.e.e.e.e.e.",
"e.e.e.e.e.e.e.e.e.e.e.e.e.e.e.e.e.y.e.e.>.$.#.X.#.) 9   X X X X X X X   # M { ] ] X.X.#.$.e.e.e.y.e.e.e.e.e.e.e.e.e.e.e.e.e.e.e.",
"e.e.e.e.e.e.e.e.e.e.e.e.e.e.e.e.e.e.e.e.e.e.;.#. .#.+.v O   @ X X . . 0 T O._ } X.#.$.;.e.>.e.e.e.e.e.e.e.e.e.y.e.e.e.e.e.e.e.e.",
"e.e.e.e.e.e.e.e.e.e.e.e.e.e.e.e.y.e.y.e.e.e.e.$.$.#.X.*.K 3   X   # g { [ _ [ #.#.$.;.e.e.e.e.e.e.e.e.e.e.e.e.e.e.e.e.e.e.e.e.e.",
"e.e.e.e.e.e.e.e.e.e.e.e.e.e.e.e.e.y.e.e.e.e.e.e.$.$.#. .+.} s X 6 Y O._ ] X.X.#.$.>.>.e.e.y.e.e.e.e.e.e.e.e.e.e.e.e.e.e.e.e.e.e.",
"e.e.e.e.e.e.e.e.e.e.e.e.e.e.e.e.e.e.e.e.e.e.e.e.e.e.%.#.@.} &.K ] } _ [ X.#.$.;.e.e.e.e.e.e.e.y.e.e.e.e.e.e.e.e.e.e.e.e.e.e.e.e.",
"e.e.e.e.e.e.e.e.e.e.e.e.e.e.e.e.y.e.y.e.e.e.e.e.e.e.e.$.$.#.X.+.[ [ X.#.#.$.e.e.y.e.e.e.e.y.y.e.e.e.e.e.e.e.e.e.e.e.e.e.e.e.e.e.",
"e.e.e.e.e.e.e.e.e.e.e.e.e.e.e.e.e.e.e.e.e.e.e.e.e.e.e.e.;.$.#.X.X.#.#.$.$.e.e.e.e.e.e.e.e.e.e.e.e.e.e.e.e.e.e.e.e.e.e.e.e.e.e.e.",
"e.e.e.e.e.e.e.e.e.e.e.e.e.e.e.e.e.e.e.e.e.e.e.e.e.e.e.e.e.e.;.$.$.$.$.e.e.e.e.e.e.e.e.e.e.e.e.e.e.e.e.e.e.e.e.e.e.e.e.e.e.e.e.e.",
"e.e.e.e.e.e.e.e.e.e.e.e.e.e.e.e.e.e.e.e.e.e.e.e.e.e.e.e.e.e.e.e.e.e.e.e.e.e.e.e.e.e.e.e.e.e.e.e.e.e.e.e.e.e.e.e.e.e.e.e.e.e.e.e.",
"e.e.e.e.e.e.e.e.e.e.e.e.e.e.e.e.e.e.e.e.e.e.e.e.e.e.e.e.e.e.e.e.y.e.e.e.e.e.e.y.e.e.e.e.e.e.e.e.e.e.e.e.e.e.e.e.e.e.e.e.e.e.e.e.",
"e.e.e.e.e.e.e.e.e.e.e.e.e.e.e.e.e.e.e.e.e.e.e.e.e.e.e.e.e.e.e.e.e.e.e.e.e.e.e.e.e.e.e.e.e.e.e.e.e.e.e.e.e.e.e.e.e.e.e.e.e.e.e.e.",
"e.e.e.e.e.e.e.e.e.e.e.e.e.e.e.e.e.e.e.e.e.e.e.e.e.e.e.e.e.e.e.e.e.e.e.e.e.e.e.e.e.e.e.e.e.e.e.e.e.e.e.e.e.e.e.e.e.e.e.e.e.e.e.e.",
"e.e.e.e.e.e.e.e.e.e.e.e.e.e.e.e.e.e.e.e.e.e.e.e.e.e.e.e.e.e.e.e.e.e.e.e.e.e.e.e.e.e.e.e.e.e.e.e.e.e.e.e.e.e.e.e.e.e.e.e.e.e.e.e.",
"e.e.e.e.e.e.e.e.e.e.e.e.e.e.e.e.e.e.e.e.e.e.e.e.e.e.e.e.e.e.e.e.e.e.e.e.e.e.e.e.e.e.e.e.e.e.e.e.e.e.e.e.e.e.e.e.e.e.e.e.e.e.e.e."
};
